<svg version="1.2" xmlns="http://www.w3.org/2000/svg" viewBox="0 0 766 820" width="766" height="820" style=""><style>.a{fill:none;stroke:#ff2d91;stroke-miterlimit:100;stroke-width:4}</style><path class="a elQgRXKA_0" d="m551.9 735.4c-0.2 0.3-4.8 1.2-10.1 2-5.4 0.9-14.2 1.6-19.5 1.6-5.4 0-13.6-0.5-18.3-1.1-4.7-0.7-11.9-1.1-16-1-4.1 0.1-7.8 0.5-8.2 0.9-0.4 0.4 5.7 1.4 13.5 2.2 7.8 0.8 20.7 1.4 28.7 1.3 11.3-0.1 16.7-0.6 24.8-2.4 5.6-1.3 10.2-2.7 10.2-3.1 0-0.5-1-0.8-2.3-0.8-1.3 0-2.6 0.2-2.8 0.4z"></path><path class="a elQgRXKA_1" d="m219 685.6c-1.2 1.5-2.2 3.4-2.1 4.3 0 0.9 0.6 2.2 1.3 2.9 0.7 0.7 2.2 1.2 3.3 1.2 1.1 0 3-0.7 4.3-1.5 1.3-0.9 2.2-2.5 2.2-4 0-1.4-0.7-3.2-1.5-4-0.8-0.8-2.4-1.5-3.4-1.5-1.1 0-2.9 1.2-4.1 2.6z"></path><path class="a elQgRXKA_2" d="m237.6 677.5c-0.3 1.4-0.3 3.6 0.2 5 0.4 1.4 1.4 2.8 2.2 3.2 0.8 0.3 2.2 0.7 3 0.9 0.8 0.2 2.2-0.3 3.2-0.9 0.9-0.7 2.1-2.4 2.7-4 0.9-2.3 0.8-3-0.9-4.7-1.3-1.3-3.3-2-5.9-2-3.4 0-4 0.4-4.5 2.5z"></path><path class="a elQgRXKA_3" d="m197.1 669.8c-1.2 1.2-1.7 2.6-1.3 4.7 0.2 1.7 1.2 3.6 2.1 4.3 0.9 0.7 2.4 1.2 3.3 1.2 0.9 0 2.4-0.7 3.2-1.5 0.9-0.8 1.6-2.6 1.6-4 0-1.4-0.9-3.4-2-4.5-1.1-1.1-2.7-2-3.5-2-0.8 0-2.3 0.8-3.4 1.8z"></path><path class="a elQgRXKA_4" d="m260.1 664.8c-0.6 1.1-0.5 2.8 0.5 5 1.1 2.5 2 3.2 4.1 3.2 1.6 0 3.6-0.5 4.7-1.2 1.3-0.9 1.6-2 1.2-3.5-0.3-1.3-1.3-3-2.1-3.8-0.8-0.8-2.8-1.5-4.5-1.5-1.8 0-3.3 0.7-3.9 1.8z"></path><path class="a elQgRXKA_5" d="m471 658c-3.6 0.9-10 3.1-14.3 4.9-4.2 1.7-11.6 5.1-16.4 7.5-4.9 2.4-11.5 6.6-14.7 9.3-3.3 2.6-6.8 6.2-7.7 7.8-1 1.6-2.6 5.9-3.5 9.5-0.9 3.8-1.5 9-1.3 12.6 0.3 4.7 1.4 8.1 5 15.5 2.9 5.8 6.2 10.8 8.5 12.9 2.2 2 7.5 5.1 11.9 6.9 4.4 1.8 11.3 4 15.2 4.7 4 0.8 11.9 1.4 17.6 1.4 7 0 12.5-0.6 17.7-2 4.1-1.1 9.9-2 12.7-2 3.8 0 5.1-0.3 4.5-1.2-0.5-0.8-3.7-0.9-12.2-0.3-6.3 0.5-16.7 0.9-23 0.9-7.1 0-14.6-0.7-19.5-1.7-4.4-1-10.4-2.9-13.3-4.2-2.8-1.4-7.3-4.6-9.8-7.3-2.5-2.6-6-7.6-7.7-11.2-2.2-4.5-3.3-8.3-3.5-12.5-0.2-3.3 0.3-9.4 1.2-13.5 1.2-5.5 2.3-8.3 4.3-10.3 1.6-1.6 7.7-5.8 13.8-9.4 6.1-3.6 14.8-8.1 19.5-10 4.7-1.9 11.9-4.6 16-6 4.1-1.4 7.9-2.9 8.4-3.4 0.6-0.5 0.2-0.9-1-0.8-1 0.1-4.8 0.9-8.4 1.9z"></path><path class="a elQgRXKA_6" d="m222.5 657.6c-0.9 0.8-1.6 2.5-1.6 3.7 0.1 1.2 0.8 3.2 1.6 4.4 0.8 1.3 2.5 2.3 3.8 2.3 1.2 0.1 2.8-0.5 3.5-1.2 0.6-0.7 1.3-2.7 1.5-4.4 0.1-1.7-0.5-3.9-1.3-4.8-0.8-0.9-2.5-1.7-3.7-1.6-1.2 0-2.9 0.7-3.8 1.6z"></path><path class="a elQgRXKA_7" d="m277.4 653.7c-0.4 0.4-0.7 1.7-0.6 3 0.1 1.3 1.3 3.4 2.7 4.8 1.6 1.6 3.6 2.5 5.5 2.5q3 0 4-2c0.6-1.1 1-2.6 1-3.3 0-0.6-0.7-2.1-1.6-3.2-1-1.4-2.8-2.1-5.9-2.2-2.4-0.1-4.7 0.1-5.1 0.4z"></path><path class="a elQgRXKA_8" d="m179 653c0 0.5-0.9 0.7-2.1 0.4-1.1-0.4-3 0.1-4.5 1-1.3 0.9-2.4 2.3-2.4 3.1 0 0.8 1.1 2.7 2.4 4.3 2.2 2.5 2.7 2.6 6.2 1.7 2.5-0.7 4.3-1.9 5.1-3.5 0.8-1.8 0.9-3 0.1-4.5-0.6-1.1-1.6-2.3-2.2-2.7-0.6-0.4-1.4-0.8-1.8-0.8-0.5 0-0.8 0.5-0.8 1z"></path><path class="a elQgRXKA_9" d="m242.5 648.8c-1 1-1.8 2.9-1.7 4.3 0 1.3 0.9 3.1 1.8 3.9 1 0.8 2.4 1.6 3.3 1.7 0.9 0.1 2.5-0.3 3.6-0.9 1.1-0.6 2.3-1.6 2.7-2.2 0.4-0.6 0.5-2 0.1-3.1-0.3-1.1-1.6-2.8-2.7-3.7-1.2-1-2.8-1.7-3.7-1.8-0.9 0-2.4 0.8-3.4 1.8z"></path><path class="a elQgRXKA_10" d="m265.7 640.4c-1.7-0.5-4.1-0.4-5.4 0.2-1.3 0.7-2.5 2-2.8 2.9-0.2 1 0.5 3 1.6 4.5 1.3 1.8 2.9 2.8 4.5 3 1.4 0.1 3.4-0.6 4.4-1.5 1.1-0.9 2-2.8 2-4.1 0.1-1.5-0.2-2.8-0.6-3.3-0.3-0.4-2-1.2-3.7-1.7z"></path><path class="a elQgRXKA_11" d="m194.5 641.3c-0.9 1.4-1.2 3.5-0.8 5.7 0.3 1.9 1.2 4.1 1.9 4.8 0.8 0.6 2.2 1.2 3.2 1.2 0.9 0 2.5-0.6 3.4-1.3 1-0.7 1.7-2.4 1.8-3.9 0-1.6-0.4-3.7-1-4.8-0.6-1.1-2.4-2.4-4-3-2.7-0.8-3.3-0.6-4.5 1.3z"></path><path class="a elQgRXKA_12" d="m315.3 638.5c-1.9 1.2-2.2 2.1-1.6 4.8 0.3 1.7 1.3 3.7 2.2 4.4 0.9 0.7 2.8 1.3 4.3 1.3 1.9 0 3.3-0.8 4.3-2.5 0.8-1.4 1.3-3.1 1-3.8-0.3-0.6-2.1-2.2-4-3.5-1.9-1.2-3.6-2.2-3.8-2.2-0.1 0-1.2 0.7-2.5 1.5z"></path><path class="a elQgRXKA_13" d="m215.3 634.1c-0.4 0.5-1.8 1.4-3 2-1.3 0.5-2.3 1.5-2.3 2.1 0 0.7 0.9 2.8 2 4.5 1.1 1.8 2.8 3.4 3.7 3.4 1 0.1 2.7 0 3.8-0.1 1.1-0.1 2.6-0.9 3.3-1.8 0.7-0.9 1.2-2.8 1.2-4.2 0-1.4-0.9-3.5-2-4.8-1.1-1.2-2.9-2.2-4-2.2-1 0-2.3 0.5-2.7 1.1z"></path><path class="a elQgRXKA_14" d="m158 632.3c-0.3 0.3-2.1 0.6-4 0.8-1.9 0.2-4.1 0.8-4.8 1.3-0.7 0.6-1.3 1.7-1.2 2.4 0 0.6 1 2.6 2.3 4.2 1.2 1.7 3.4 3.2 5 3.5 1.5 0.3 3.4-0.1 4.2-0.7 0.9-0.8 1.6-2.8 1.6-4.8-0.1-1.9-0.6-4.3-1.3-5.3-0.7-1-1.5-1.6-1.8-1.4z"></path><path class="a elQgRXKA_15" d="m227.7 626.8c-0.4 0.6-0.3 2.3 0.3 3.7 0.6 1.4 2.4 3.2 4 4 1.7 0.8 3.8 1.5 4.8 1.5 0.9 0.1 2.5-0.7 3.4-1.7 1-1 1.8-3 1.8-4.5 0-1.6-0.4-2.8-1-2.8-0.5 0-1.4 1.1-2 2.5-0.5 1.4-1.4 2.5-2 2.5-0.5 0-2-0.5-3.2-1.2-1.3-0.6-3-2.1-3.9-3.2-1.1-1.5-1.8-1.8-2.2-0.8z"></path><path class="a elQgRXKA_16" d="m296 626.2c-0.8 0.7-1.3 2.5-1.2 4q0.2 2.8 3 4.4c1.5 0.9 3.7 1.4 5 1q2.3-0.6 2.7-3.6c0.3-1.7 0.1-3.9-0.5-5-0.7-1.4-2-2-4.3-2-1.8 0-3.9 0.5-4.7 1.2z"></path><path class="a elQgRXKA_17" d="m175.5 624.7c-1.1 0.3-2.6 1-3.3 1.7-0.7 0.6-1.3 2.3-1.2 3.8 0 1.6 1 3.7 2.3 4.8 1.2 1 3.2 1.9 4.5 2 1.3 0 2.8-1 3.7-2.5 0.8-1.4 1.5-3.7 1.5-5.3 0-1.9-0.7-3.1-2.5-4-1.4-0.6-2.6-1.1-2.8-1.1-0.1 0.1-1.1 0.4-2.2 0.6z"></path><path class="a elQgRXKA_18" d="m248.8 620.8c-0.8 0.2-1.9 1.4-2.2 2.8-0.3 1.3-0.1 3.1 0.6 4 0.7 0.8 2.4 1.4 3.7 1.2 1.3-0.2 2.9-1.1 3.5-2 0.9-1.4 0.6-2.2-1.4-4.1-1.4-1.3-3.3-2.1-4.2-1.9z"></path><path class="a elQgRXKA_19" d="m195.8 619.9c-0.7 1.1-1.2 3.3-1.1 5 0.2 2.2 1 3.4 2.8 4.1q2.5 1 4.5 0c1.1-0.5 2.4-1.9 3-3 0.8-1.5 0.5-2.7-1-5q-1.9-3-4.5-3c-1.3 0-3 0.9-3.7 1.9z"></path><path class="a elQgRXKA_20" d="m274.5 614.4c-1.1 1.4-1.8 3.3-1.7 4.3 0.1 1 1.2 2.8 2.4 4 1.3 1.3 3.2 2.3 4.3 2.3 1.1 0 3-0.7 4.3-1.5 1.5-1 2.2-2.5 2.2-4.7 0-1.8-0.4-3.8-0.8-4.5-0.4-0.6-2.5-1.5-4.7-1.8-3.6-0.6-4.3-0.4-6 1.9z"></path><path class="a elQgRXKA_21" d="m214.6 612.3c-1 1.3-1.3 3.2-0.9 4.7 0.3 1.4 1.1 3.1 1.7 3.8 0.6 0.7 2.1 1.3 3.4 1.2 1.3 0 3.4-1.1 4.7-2.5 1.4-1.4 2.5-3 2.5-3.5 0-0.5-1.1-2.1-2.5-3.5-1.4-1.4-3.6-2.5-5-2.5-1.4 0-3 0.9-3.9 2.3z"></path><path class="a elQgRXKA_22" d="m380 605.7c-1.9 0.2-6.6 0.8-10.5 1.4-3.9 0.6-10.4 2.7-14.5 4.6-4.1 1.9-9.9 5-12.8 6.9-2.8 1.9-6 4.5-6.9 5.9-1 1.4-1.6 2.7-1.3 3 0.3 0.2 2.5-1.2 5-3.2 2.5-1.9 7.4-5 11-6.8 3.6-1.8 10.1-4.4 14.5-5.8 4.4-1.4 11.4-3.1 15.5-3.7 4.1-0.6 7.6-1.2 7.7-1.3 0.1-0.1-0.8-0.4-2-0.7-1.2-0.3-3.8-0.4-5.7-0.3z"></path><path class="a elQgRXKA_23" d="m241 604c-1.1 1.1-2 2.7-2 3.5 0 0.8 0.7 2.2 1.5 3 0.8 0.8 2.1 1.5 2.9 1.5 0.8 0 2.2-0.7 3-1.5 0.9-0.8 1.6-2.2 1.6-3 0-0.8-0.4-2.4-1-3.5-0.6-1.1-1.7-2-2.5-2-0.8 0-2.4 0.9-3.5 2z"></path><path class="a elQgRXKA_24" d="m125.9 599.9c-0.6 1.1-1 2.9-1 4 0.1 1.2 1.1 2.8 2.3 3.6 1.3 0.8 2.5 1.5 2.8 1.5 0.3 0 1.5-0.9 2.7-2 1.3-1.1 2.3-3.1 2.3-4.5 0-1.5-0.8-2.9-2-3.5-1.1-0.5-2.9-1-4-1-1.1 0-2.4 0.9-3.1 1.9z"></path><path class="a elQgRXKA_25" d="m145.9 595.9c-0.6 1.1-1.1 3-1 4.3 0 1.3 0.7 2.9 1.6 3.6 0.8 0.6 2.6 1 4 0.7 1.5-0.3 2.7-1.4 3.1-2.7 0.3-1.3 0-3.6-0.8-5.1-0.8-1.8-2.1-2.8-3.5-2.7-1.2 0-2.7 0.9-3.4 1.9z"></path><path class="a elQgRXKA_26" d="m518.5 590.7c-0.5 0.3-0.8 1.7-0.7 3 0.1 1.3 1.2 4.4 2.5 7 1.2 2.6 4.5 7.2 7.2 10.1 2.8 3 5.8 5.8 6.8 6.3 0.9 0.5-1.1-2.6-4.5-6.9-3.3-4.2-7-9.7-8.1-12.2-1.1-2.5-2-5.3-2-6.3 0-0.9-0.1-1.7-0.2-1.7-0.1 0-0.5 0.3-1 0.7z"></path><path class="a elQgRXKA_27" d="m173 590.2c-0.8 0.6-1.3 2.5-1.2 4 0.1 1.7 1 3.2 2.2 3.8 1.1 0.5 2.7 0.8 3.5 0.5 0.8-0.3 1.8-1.7 2.1-3.3 0.4-1.5 0.2-3.4-0.3-4.2-0.6-0.8-1.9-1.6-2.9-1.8-1.1-0.1-2.6 0.3-3.4 1z"></path><path class="a elQgRXKA_28" d="m227 589.2c-5.2 2.2-10.8 4.3-12.5 4.7-1.7 0.5-21.2 7-43.5 14.5-22.3 7.5-44.8 14.8-50 16.2-5.2 1.4-9.9 3-10.4 3.5-0.6 0.5-1.9 0.9-3 0.9-1.2-0.1-2.7 0.6-3.3 1.5q-1.4 1.5-0.3 2.7c0.7 0.9 0.9 14.7 0.5 40.8-0.2 21.7-0.5 44.5-0.6 50.5 0 6 0.3 12.1 0.8 13.4 0.7 2.1 6.7 4 71.3 22.7 38.8 11.2 74.1 21.5 78.5 22.9 6.7 2.1 8.2 2.3 9.5 1.2 0.8-0.7 4.4-2.6 8-4.2 3.6-1.5 7.6-3.6 9-4.5 1.4-0.9 12.9-6.8 25.5-12.9 12.6-6.2 28.4-13.9 35-17.1 6.6-3.2 14.9-7.1 18.5-8.6 3.6-1.6 6.6-3.2 6.8-3.6 0.1-0.4 0.8-0.8 1.5-0.8 0.6 0 2.9-1.1 5-2.5 2-1.4 4.1-2.5 4.7-2.5 0.6 0 2.9-1.2 5.3-2.7 2.3-1.4 5.6-2.9 7.2-3.3l3-0.6c1.1-20.1 1.2-30.5 0.9-36.2-0.2-5.6-0.6-10.5-0.8-11-0.2-0.4-8.4-6.3-18.1-13.2-9.8-6.9-22.4-15.7-28-19.5-5.5-3.9-14-9.7-18.8-13l-8.7-6c0-12.4-0.3-19-0.8-22.8-0.4-4.3-1.1-6.7-1.9-6.7-0.7 0-1.2 1-1.1 2.2 0 1.3-0.3 6.9-0.8 12.6-0.5 5.6-1 10.2-1.1 10.2-0.2 0-2.4-1.4-5-3.2-2.7-1.7-7.7-5.4-11.3-8.2-3.6-2.7-7.2-5.6-8-6.3-0.8-0.8-3.1-2.4-5-3.7-1.9-1.3-4.6-2.5-5.9-2.7-1.3-0.2-2.6 0.1-2.8 0.6-0.2 0.5 2.2 3 5.4 5.5 3.2 2.4 8.9 7.1 12.8 10.3 3.9 3.2 9.3 6.9 12 8.2 2.8 1.3 5.9 3.3 7 4.5 1.1 1.1 2.4 2 3 2 0.6 0 2.8 1.8 5 4 2.2 2.2 4.4 4 5 4 0.6 0 2.8 1.3 5 2.8 2.2 1.5 4.1 3 4.3 3.4 0.1 0.5 0.6 0.8 1.2 0.8 0.6 0 2.5 1 4.3 2.2 1.8 1.3 4.6 3.3 6.2 4.6 1.7 1.2 2.8 2.4 2.5 2.6-0.3 0.3-7.2 3.6-15.5 7.5-13.8 6.5-15.1 7-16.2 5.4-0.6-1-3.7-3.6-6.9-5.8-3.1-2.2-7.6-5.6-9.8-7.5-2.3-2-6.6-5.6-9.6-8-3-2.5-6.1-5.2-7-6-0.8-0.9-4.1-3.4-7.2-5.8-3.2-2.3-6.5-4.2-7.3-4.2-0.8 0-1.5 0.8-1.5 1.7 0 1 2.7 4 6.2 6.8 3.5 2.7 9.9 7.6 14.3 10.9 4.4 3.4 10.7 8.5 14 11.5 3.3 2.9 7.5 6.1 9.3 7 1.8 0.9 3.1 2 3 2.4-0.2 0.4-15.6 8.1-34.3 17.1-18.7 8.9-39.7 19-46.8 22.4l-12.7 6.2c-9.7-7.5-14.1-10.8-16-12.2-1.9-1.4-7.3-5.1-12-8.3-4.7-3.2-11.9-8.4-16.1-11.4-4.1-3.1-10.1-7.4-13.3-9.6-3.1-2.2-9.6-6.9-14.4-10.4-4.8-3.5-9.6-7.2-10.7-8.2-1.1-1.1-3.6-3.2-5.6-4.7-1.9-1.5-7.4-5-12.2-7.7-4.8-2.8-8.8-5.3-8.8-5.7 0-0.3 1.9-1.3 4.3-2.2 2.4-0.8 7-2.5 10.3-3.6 3.3-1.1 9.2-3.1 13-4.4 3.8-1.3 8.8-2.7 11-3.1 2.2-0.4 5.2-1.4 6.7-2.1 1.6-0.8 5.4-1.9 8.5-2.5 3.2-0.6 6.2-1.4 6.8-1.9 0.6-0.4 2.3-1.1 4-1.5 1.7-0.4 4.8-1.5 7-2.6 2.2-1 5.8-2.2 8-2.5 2.2-0.3 4.4-1 5-1.4 0.6-0.4 2.3-1 4-1.4 1.7-0.4 6.8-2.1 11.5-3.9 4.7-1.7 12-4.8 16.2-6.9 4.3-2.1 8.1-4.4 8.4-5.1 0.3-0.6 0.2-1.5-0.3-1.8-0.5-0.4-5.1 1.1-10.3 3.3z"></path><path class="a elQgRXKA_29" d="m379 684.7c-5.8 3.1-13.4 7-17 8.8-3.6 1.8-11.9 5.7-18.5 8.7-6.6 2.9-17.6 8.4-24.5 12.1-6.9 3.7-13.9 7.6-15.5 8.6-1.6 1-4.1 2.1-5.5 2.5-1.4 0.4-3.4 1.3-4.5 2-1.1 0.7-3.6 1.9-5.5 2.5-1.9 0.7-4.6 2.1-6 3.1-1.4 1-6.1 3.4-10.5 5.3-5.6 2.4-7.9 3.8-7.5 4.8 0.3 0.8 0.5 6.6 0.4 12.9-0.1 6.3-0.4 14.1-0.8 17.2-0.3 3.2-0.4 5.8-0.1 5.8 0.3 0 1.3-0.4 2.3-1 0.9-0.5 3.7-1.8 6.2-3 2.5-1.1 6.5-3.1 9-4.5 2.5-1.3 7-3.5 10-4.8 3-1.3 8.9-3.9 13-5.8 4.1-1.8 19.6-9.5 34.5-17 14.9-7.4 30.6-15.5 35-17.9 4.4-2.3 9.8-4.8 12-5.5l4-1.2c0.3-30.5 0.3-39.3 0.2-39.3-0.1 0-4.9 2.6-10.7 5.7zm-27.7-31c-0.5 1-5.1 4.2-10.2 7-5 2.9-9.5 5.3-10.1 5.3-0.6 0-4.9 1.9-9.8 4.1-4.8 2.3-10.5 5-12.7 6-2.2 1-4.4 1.9-5 1.9-0.6 0-2.6 1.1-4.5 2.4-1.9 1.3-4.6 2.7-6 3.1-1.4 0.4-6.8 2.9-12 5.5-5.2 2.6-15.1 7.6-22 11.2-6.9 3.5-16.9 8.2-22.3 10.4-9.2 3.6-9.7 4-7.9 5.4 1.1 0.8 3 2.2 4.2 3 1.2 0.8 5.8 4.4 10.2 8 4.4 3.6 9.8 7.8 11.9 9.5 3.6 2.8 4 2.9 5.6 1.4 1-0.8 4.3-2.7 7.3-4.2 3-1.4 6.9-2.9 8.5-3.2 1.6-0.4 8.9-3.8 16-7.5 7.1-3.8 15.3-8 18-9.4 2.7-1.4 7.5-3.6 10.5-5 3-1.4 16.5-7.9 30-14.5 13.5-6.6 26.3-13.4 28.5-15.1 2.2-1.6 4.9-2.9 6.1-3 1.1 0 2.4-0.3 2.7-0.8 0.3-0.4-4.4-3.6-10.5-7.2-6.1-3.6-13.7-8.6-16.9-11.3-3.3-2.6-6.5-4.7-7.2-4.7-0.7 0-1.8 0.8-2.4 1.7z"></path><path class="a elQgRXKA_30" d="m262 709.4c-0.8 0.7-2.1 2.5-2.8 3.9-1 2.3-0.9 2.9 0.5 4.2 1 0.8 3.3 1.5 5 1.5 2.3 0 3.8-0.7 4.8-2.2 0.8-1.3 1.5-3.2 1.5-4.3 0-1.1-0.5-2.6-1.2-3.3-0.7-0.7-2.4-1.2-3.8-1.2-1.4 0-3.2 0.6-4 1.4zm23.9-9.5c-0.6 1.1-1 3-1 4.3 0 1.3 0.6 3 1.3 3.9 0.7 1 2.3 2 3.6 2.3 1.6 0.4 2.6 0 3.7-1.6 0.8-1.3 1.5-3.6 1.5-5.3 0-1.6-0.5-3.6-1.2-4.3-0.7-0.7-2.5-1.2-4-1.2-1.6 0-3.2 0.8-3.9 1.9zm25.2-13.4c-1.7 1.2-2.3 2.4-2.2 4.8 0.1 1.8 0.5 3.7 0.9 4.3 0.4 0.6 1.5 1.4 2.5 1.7 0.9 0.4 3.1 0.1 4.7-0.5 2.3-1 3-1.9 3-4 0-1.6-1.1-3.9-2.5-5.3-1.4-1.4-2.8-2.5-3.2-2.5-0.5 0-1.9 0.7-3.2 1.5zm18.4-9.7c-1 1-1.8 2.9-1.7 4.3 0.1 1.3 0.7 3 1.4 3.7 0.7 0.7 2.5 1.2 4.1 1.2 1.5 0 3.6-0.9 4.7-2 1.1-1.1 2-3.1 2-4.5 0-1.5-0.8-2.9-2-3.5-1.1-0.5-3.1-1-4.4-1-1.2 0-3.1 0.8-4.1 1.8zm20.5-9.6c-0.8 0.7-1.3 2.2-1.2 3.5 0.1 1.3 1.1 3.2 2.2 4.3 1.1 1.1 2.4 2 3 2 0.6 0 1.9-0.9 3-2 1.1-1.1 2-2.8 2-3.7 0.1-1-0.7-2.6-1.7-3.5-1-1-2.7-1.8-3.9-1.8-1.1 0-2.6 0.5-3.4 1.2z"></path><path class="a elQgRXKA_31" d="m109.9 653.3c-0.2 9.4-0.4 32-0.4 50.1v32.9c6.2 0.6 12 1.9 17 3.3 4.9 1.4 11.5 3.2 14.5 4 3 0.8 8.7 2.1 12.5 3 3.8 1 8.1 2.3 9.5 2.9 1.4 0.7 4.1 1.6 6 2 1.9 0.3 6.4 1.7 10 3 3.6 1.3 9.4 3.2 13 4.3 3.6 1 9.3 2.6 12.7 3.5 3.5 1 9.1 2.4 12.5 3.4 3.5 0.9 7.3 2.2 8.5 3 1.3 0.7 2.9 1.3 3.5 1.3 0.7 0 3.5 0.8 6.3 1.9 2.7 1.1 8.7 3.1 13.2 4.5 4.6 1.4 8.7 2.4 9.3 2.1 0.6-0.3 1-1.3 0.9-2.2 0-1 0-8.8 0-17.3 0-13.4-0.3-15.7-1.7-16.7-0.9-0.7-5.8-4.1-10.7-7.5-4.9-3.4-11.5-8.1-14.5-10.4-3-2.4-10.7-8.1-17-12.7-6.3-4.6-29.1-21.1-50.5-36.7-21.4-15.6-41.3-29.8-44-31.6-2.8-1.7-5.9-4.1-7-5.3-1.2-1.2-2.3-2.1-2.6-2.1-0.4 0-0.8 7.8-1 17.3z"></path><path class="a elQgRXKA_32" d="m526.9 580.3c-1.1 2.1-1.1 3-0.2 4 1 0.9 1.4 0.7 1.9-1.3 0.3-1.4 0.4-3.2 0.1-4-0.3-1.1-0.8-0.7-1.8 1.3z"></path><path class="a elQgRXKA_33" d="m204.1 577.2c-1.2 1.8-2.1 4-2.1 4.8 0 0.8 0.5 2.1 1.2 2.8 0.7 0.7 2.2 1.2 3.3 1.2 1.1 0.1 2.8-0.7 3.8-1.7 1.2-1.3 1.7-3 1.5-5.8-0.3-3.5-0.6-4-3-4.3-2.1-0.3-3.1 0.4-4.7 3z"></path><path class="a elQgRXKA_34" d="m129 573.3c-1.3 0.7-2.6 2.4-2.8 3.8-0.2 1.4 0.4 3.2 1.5 4.2 1.3 1.3 2.5 1.7 4.3 1.2 1.4-0.4 3.1-1.2 3.8-1.8 0.7-0.7 1.3-2.7 1.2-4.4 0-2-0.6-3.5-1.5-3.8-0.8-0.3-2.1-0.5-2.8-0.5-0.6 0-2.3 0.6-3.7 1.3z"></path><path class="a elQgRXKA_35" d="m143.5 571.1c-2.3 1.6-2.9 2.7-2.7 5 0.1 1.6 1.3 4 2.7 5.4 1.8 1.8 3.1 2.3 4.8 1.9 1.2-0.4 2.8-1.2 3.6-1.8 0.7-0.6 1.8-2.1 2.2-3.4 0.5-1.2 0.5-3 0-4-0.4-0.9-1.6-2.5-2.5-3.5-0.9-0.9-2.4-1.7-3.4-1.7-0.9 0-3 1-4.7 2.1z"></path><path class="a elQgRXKA_36" d="m174.1 561.5c-1.3 0.9-2.3 2.4-2.3 3.3 0.1 0.9 1.2 2.7 2.4 3.9 1.3 1.3 3.2 2.3 4.3 2.3 1.1 0 2.8-0.7 3.8-1.7 1.4-1.5 1.5-2.3 0.6-4.8-0.6-1.6-1.6-3.3-2.2-3.7-0.7-0.4-1.9-0.8-2.7-0.8-0.8 0-2.6 0.7-3.9 1.5z"></path><path class="a elQgRXKA_37" d="m202.7 551c-2.1 1.5-2.6 2.7-2.4 5.2 0.2 2.6 0.7 3.3 3.2 4 2.1 0.5 3.7 0.3 5.3-0.7 1.8-1.3 2.1-2.1 1.6-5.3-0.3-2-1.1-4-1.7-4.4-0.7-0.4-1.7-0.8-2.3-0.8-0.6 0-2.3 0.9-3.7 2z"></path><path class="a elQgRXKA_38" d="m128.7 547.8c-1.5 0.9-3 2.8-3.4 4.2-0.3 1.4-0.1 3.2 0.4 4 0.6 0.8 2.5 1.6 4.4 1.8 2.2 0.2 4-0.4 5.2-1.5 1-1 1.8-2.9 1.8-4.3 0-1.4-0.8-3.3-1.8-4.2-1-1-2.2-1.7-2.8-1.7-0.6 0-2.3 0.7-3.8 1.7z"></path><path class="a elQgRXKA_39" d="m143 544.6c-2.9 1.2-3.4 1.8-3.2 4.4 0.1 2.2 1 3.4 3 4.4 1.5 0.7 3.7 1.3 5 1.2 1.3 0 3-1 3.8-2.1 0.8-1.1 1.4-3 1.4-4.3 0-1.2-0.7-2.9-1.5-3.7-0.8-0.8-2.3-1.5-3.2-1.4-1 0-3.4 0.7-5.3 1.5z"></path><path class="a elQgRXKA_40" d="m219.5 539.7c-0.5 2.1-0.5 9.2-0.2 15.8 0.3 6.6 1.2 16.4 1.9 21.8 0.8 5.7 1.8 9.9 2.6 10.2 0.6 0.3 1.8-0.2 2.5-1.1 1-1.3 0.9-5.6-0.6-21.8-0.9-11-2.2-21.8-2.7-23.9-0.6-2-1.4-3.9-1.9-4.2-0.5-0.3-1.2 1.1-1.6 3.2z"></path><path class="a elQgRXKA_41" d="m173 535.2c-0.8 0.7-1.3 2.2-1.2 3.5 0.1 1.3 1 3.7 1.9 5.3 1.3 2.2 2.5 3 4.5 3 2.2 0 3-0.6 3.5-2.8 0.4-1.5 0.6-3.4 0.4-4.2-0.1-0.8-1.5-2.5-2.9-3.7-1.5-1.2-3.2-2.2-3.8-2.3-0.5 0-1.6 0.5-2.4 1.2z"></path><path class="a elQgRXKA_42" d="m202.9 532.9c-0.6 1.1-1 2.7-1 3.5 0.1 0.9 0.8 1.8 1.6 2.1 0.8 0.3 2.6 0.5 4 0.5 2 0 2.5-0.5 2.5-2.5 0-1.5-0.9-3.1-2.3-4-1.2-0.8-2.5-1.5-2.9-1.5-0.4 0-1.2 0.9-1.9 1.9z"></path><path class="a elQgRXKA_43" d="m307 528.2c-0.8 0.7-1.3 1.9-1.2 2.8 0.1 0.8 0.9 2.5 1.7 3.7 0.9 1.5 2.3 2.2 3.7 2 1.3-0.1 2.8-1.3 3.4-2.7 0.9-1.9 1-3 0.1-4.8-0.8-1.5-2.1-2.2-3.8-2.2-1.4 0-3.1 0.5-3.9 1.2z"></path><path class="a elQgRXKA_44" d="m256.6 527.5c-1.2 1.8-1.3 3-0.6 4.5 0.5 1.1 1.7 2 2.5 2 1.1 0 1.5-1.1 1.5-4.1 0.1-2.2-0.4-4.2-0.9-4.5-0.5-0.3-1.7 0.7-2.5 2.1z"></path><path class="a elQgRXKA_45" d="m189.6 526.3c-0.3 0.6-0.7 6.8-1 13.7-0.2 6.9-1 14.1-1.5 16-0.6 2-1.1 12.5-1.1 24.3 0 19 0.1 20.7 1.8 20.7 0.9 0.1 2.2-0.5 2.8-1.2 0.8-0.9 1.4-9.2 1.7-24.8 0.3-12.9 0.8-24.8 1.2-26.5 0.3-1.6 0.6-6.6 0.7-11 0-4.4-0.2-9-0.5-10.2-0.4-1.3-1.4-2.3-2.2-2.3-0.9 0-1.7 0.6-1.9 1.3z"></path><path class="a elQgRXKA_46" d="m296.6 527.3c-0.4 2.3-0.3 4.6 0.1 5.1 0.5 0.4 1.4 0.5 2 0.2 0.8-0.3 1.3-2.5 1.3-5.1 0-3.2-0.4-4.5-1.4-4.5-0.9 0-1.6 1.6-2 4.3z"></path><path class="a elQgRXKA_47" d="m282.5 523.6c-0.9 0.8-1.6 2-1.6 2.5 0.1 0.5 0.4 1.6 0.9 2.5 0.4 0.9 1.5 2.1 2.5 2.5 0.9 0.5 2.4 0.7 3.2 0.4 0.8-0.3 1.7-1.9 2-3.5 0.3-1.7-0.1-3.7-0.8-4.5-0.6-0.9-2-1.6-2.9-1.5-0.9 0-2.4 0.7-3.3 1.6z"></path><path class="a elQgRXKA_48" d="m325.4 523.7c-0.5 1.5-0.9 7.3-0.9 12.8 0 8.7 0.2 10 1.8 10.2 1.1 0.2 1.9-0.5 2.2-2 0.3-1.2 0.7-6.9 0.8-12.7 0.2-9 0-10.5-1.5-10.8q-1.6-0.3-2.4 2.5z"></path><path class="a elQgRXKA_49" d="m127 522.2c-0.8 0.7-1.3 2.3-1.2 3.8 0.1 1.4 1.1 3.5 2.2 4.7 1.1 1.3 2.6 2.3 3.3 2.3 0.6 0 2.2-0.7 3.5-1.5 1.2-0.8 2.2-2.5 2.2-3.8 0-1.2-0.7-3.2-1.5-4.5-1-1.4-2.5-2.2-4.3-2.2-1.5 0-3.4 0.5-4.2 1.2z"></path><path class="a elQgRXKA_50" d="m269.9 516.8c-0.1 0.4 0 1.2 0.1 1.7 0.1 0.6 0.8 4.6 1.4 8.9 0.6 4.4 1.6 8.1 2.1 8.3 0.6 0.2 1.3-2.9 1.8-7.2 0.4-4.1 0.4-8.3 0-9.2-0.3-1-1.1-2.1-1.7-2.5-0.6-0.4-1.7-0.8-2.3-0.8-0.7 0-1.4 0.3-1.4 0.8z"></path><path class="a elQgRXKA_51" d="m141.5 518.7c-0.4 1.5-0.2 3.8 0.4 5 0.6 1.3 1.9 2.7 2.9 3.2 1.1 0.6 2.6 0.6 4.2-0.2 1.4-0.7 2.9-2.5 3.5-4 0.7-1.9 0.7-3.3-0.1-4.5-0.7-1.1-2.7-1.8-5.7-2-4.3-0.3-4.6-0.1-5.2 2.5z"></path><path class="a elQgRXKA_52" d="m261.4 513c-0.3 0.8 0.2 4.2 1.1 7.5 0.9 3.3 2 8.6 2.3 11.8 0.4 3.2 1.2 5.9 1.7 6 0.6 0.1 1.1-2.3 1.3-5.3 0.2-3-0.4-8.4-1.4-12-0.9-3.6-2.3-7.2-3-8-1.2-1.3-1.4-1.3-2 0z"></path><path class="a elQgRXKA_53" d="m230.9 513.9c-2.2 1.7-2.3 2.2-1.2 5.7q1.2 3.9 3.5 4.6c1.4 0.5 3.1 0.2 4.5-0.7 1.7-1.1 2.3-2.5 2.3-5.2 0-2.1-0.5-4.4-1.2-5.1-0.7-0.7-2.3-1.2-3.4-1.2-1.2 0-3.2 0.8-4.5 1.9z"></path><path class="a elQgRXKA_54" d="m180.2 511.5c-0.7 0.9-0.9 2-0.3 2.8 0.4 0.6 4.2 2.8 8.2 4.9 4.1 2 13.7 5.8 21.4 8.5 7.6 2.6 15 5.7 16.4 6.8 1.3 1.1 3.6 3.8 5.1 6 1.5 2.2 3.4 6 4.3 8.5 0.8 2.5 2.1 4.5 2.8 4.5 0.8 0 1.5-0.8 1.6-1.8 0.2-0.9-1.2-4.7-2.9-8.4-1.9-3.8-5-8.1-7.4-10.2-3-2.7-7.5-4.8-18-8.5-7.6-2.6-16.6-6.2-19.9-7.8-3.3-1.7-6.9-3.9-8.1-4.9-1.8-1.8-2.2-1.8-3.2-0.4z"></path><path class="a elQgRXKA_55" d="m244.6 507.8c-0.4 0.5-0.8 7.2-0.8 14.8 0 7.7 0 16.5 0.1 19.6 0.1 4.9 0.4 5.8 1.9 5.5 1.3-0.2 1.8-1.5 2.2-6.7 0.3-3.6 0.3-12.5 0-19.9-0.3-8.6-0.9-13.6-1.6-13.8-0.6-0.2-1.5 0-1.8 0.5z"></path><path class="a elQgRXKA_56" d="m308 506.9c-1.3 0.8-1.3 1.1 0 2.6 0.8 0.9 1.8 1.6 2.3 1.5 0.4 0 0.7-1.1 0.7-2.5 0-1.4-0.3-2.5-0.7-2.5-0.5 0-1.5 0.4-2.3 0.9z"></path><path class="a elQgRXKA_57" d="m175.3 505.7c-0.7 0.3-2 1.9-2.9 3.6-1.5 3-1.5 3.4 0.4 5.7 1 1.4 2.7 2.6 3.6 2.8 1.4 0.2 1.4-0.2 0.3-2.8-1.1-2.6-0.9-3.3 1-6 1.3-1.6 2.3-3.2 2.3-3.5 0-0.3-0.8-0.5-1.8-0.4-0.9 0-2.3 0.3-2.9 0.6z"></path><path class="a elQgRXKA_58" d="m203 503.6c-1.8 1.4-3.3 3.3-3.2 4.2 0.1 0.9 0.9 2.5 1.9 3.5 1.3 1.3 2.6 1.7 4.6 1.3 1.9-0.4 3.2-1.7 4.2-4.1 1.2-2.8 1.3-3.9 0.3-5.5-0.7-1.1-2-2-2.8-2-0.8 0-3.1 1.2-5 2.6z"></path><path class="a elQgRXKA_59" d="m231.5 499.7c-1.3 0.3-1.9 1.1-1.7 2.4 0.1 1 1.1 2.4 2.2 2.9 1.5 0.7 2.4 0.6 3.5-0.5 0.8-0.8 1.6-2.1 1.7-2.9 0.2-0.8-0.5-1.7-1.5-2-0.9-0.3-1.8-0.5-2-0.5-0.1 0.1-1.1 0.3-2.2 0.6z"></path><path class="a elQgRXKA_60" d="m218.5 507.8v14.7l5.5 0.5c0-24.7-0.2-26.2-2-28-1.1-1.1-2.3-2-2.8-2-0.4 0-0.7 6.6-0.7 14.8z"></path><path class="a elQgRXKA_61" d="m126 494.3c-1.4 1.3-2.3 3.4-2.2 4.8 0.1 1.3 0.9 3.2 1.9 4.1 1 1 2.7 1.8 3.8 1.8 1.1 0 3-0.9 4.3-2 1.2-1.1 2.2-2.9 2.2-4 0-1.1-1.1-3.1-2.5-4.5-1.4-1.4-3.1-2.5-3.8-2.5-0.8 0-2.4 1-3.7 2.3z"></path><path class="a elQgRXKA_62" d="m308.5 491.2c-0.4 0.7-0.4 2.1-0.1 3.1 0.3 0.9 1.5 1.7 2.6 1.7 1.6 0 1.9-0.6 1.8-2.7-0.2-1.7-1-2.9-2-3.1-0.9-0.2-2 0.2-2.3 1z"></path><path class="a elQgRXKA_63" d="m286 491.3c-1.6 0.9-2.6 2.3-2.8 4.3-0.1 1.6 0.3 3.5 1 4.2 0.7 0.7 2.4 1.3 3.8 1.2 1.5 0 3.1-0.6 3.8-1.3 0.7-0.6 1.2-2.7 1.2-4.5 0-2.2-0.6-3.5-2-4.2-1.1-0.6-2.1-1-2.3-1-0.1 0-1.3 0.6-2.7 1.3z"></path><path class="a elQgRXKA_64" d="m144 490c-1.1 1.1-2 2.8-2 3.8 0.1 0.9 0.8 2.6 1.8 3.7 0.9 1.2 2.5 2.4 3.5 2.8 1.1 0.5 2.4 0 3.7-1.3 1.1-1.1 2-3.2 2-4.8 0.1-1.5-0.7-3.5-1.7-4.4-1-1-2.6-1.8-3.6-1.8-0.9 0-2.6 0.9-3.7 2z"></path><path class="a elQgRXKA_65" d="m260 486.8c0 0.4 0.6 2.2 1.5 3.9 0.8 1.8 1.9 3.3 2.5 3.3 0.6 0 1-1 1-2.3 0.1-1.2-0.7-3-1.7-3.9-1-1-2.1-1.8-2.5-1.8-0.5 0-0.8 0.3-0.8 0.7z"></path><path class="a elQgRXKA_66" d="m173.1 487.3c-0.6 0.6-1 2.5-0.9 4.2 0.2 2.2 1 3.2 3 4 2.2 0.8 3.1 0.6 4.8-1 1.1-1.1 2.1-3 2-4.3 0-1.2-0.9-2.7-2-3.2-1.1-0.6-2.8-1-3.9-1-1 0-2.4 0.6-3 1.2z"></path><path class="a elQgRXKA_67" d="m202.4 482.8c-0.6 0.4-1.7 1.8-2.4 3.2-1 2-0.9 2.9 0.1 4.8 0.8 1.3 2.7 2.7 4.4 3.1 1.6 0.4 3.8 0.4 4.7 0 1-0.5 1.8-1.8 1.8-2.9 0-1.1-0.5-3.2-1.1-4.8-0.6-1.5-1.6-3-2.2-3.4-0.7-0.4-1.9-0.8-2.7-0.8-0.8 0-2 0.4-2.6 0.8z"></path><path class="a elQgRXKA_68" d="m324.9 482.6c-0.8 0.9-1.5 5.3-1.7 11.7-0.3 5.6-0.2 11.3 0.1 12.7 0.4 1.5 1.4 2.6 2.7 2.7 1.7 0.3 2.1-0.4 2.5-5 0.2-2.8 0.7-8.6 1-12.7 0.3-4.1 0.3-8.3 0-9.3-0.3-0.9-1.1-1.7-1.9-1.7-0.8 0-2 0.7-2.7 1.6z"></path><path class="a elQgRXKA_69" d="m231.6 480.6c-2.7 0.8-4.9 1.9-4.8 2.4 0.1 0.6 0.8 1.2 1.5 1.4 0.6 0.3 3.6-0.2 6.5-1 3.3-0.9 5.2-1.9 5.2-2.9 0-0.8-0.8-1.5-1.7-1.4-1 0-4 0.7-6.7 1.5z"></path><path class="a elQgRXKA_70" d="m274.6 477.2c-0.3 0.7-0.8 3.6-1.1 6.3-0.3 2.8-0.9 8.5-1.3 12.8-0.7 7.3-0.6 7.7 1.3 7.7 1.7 0 2.1-0.9 2.7-5.2 0.4-2.9 0.8-9 0.9-13.5 0.1-4.7-0.3-8.4-0.9-8.8-0.6-0.3-1.3 0-1.6 0.7z"></path><path class="a elQgRXKA_71" d="m285.5 476c-0.3 0.6-0.3 1.9 0 3 0.3 1.1 1.3 2 2.3 2 0.9 0.1 2.6-0.9 3.7-2 1.7-1.8 1.8-2.3 0.5-3-0.8-0.6-2.5-1-3.7-1-1.2 0-2.4 0.4-2.8 1z"></path><path class="a elQgRXKA_72" d="m160.5 475.3c-0.2 0.6-0.7 19.6-1 42.2-0.4 22.5-0.6 45.3-0.5 50.5 0 5.2 0 16.6 0 25.2 0 13.4 0.2 15.8 1.5 15.8 0.8 0 1.8-0.6 2.3-1.3 0.4-0.6 0.8-20.6 0.8-44.2 0.1-23.6 0.4-45.3 0.7-48 0.2-2.8 0.6-12.2 0.7-21 0.2-10.4-0.1-16.8-0.9-18.3-0.6-1.2-1.6-2.2-2.1-2.2-0.6 0-1.2 0.6-1.5 1.2z"></path><path class="a elQgRXKA_73" d="m298.6 473.3c-0.3 1.7-0.8 6.8-1.1 11.2-0.3 4.4-0.8 11.7-1.1 16.2-0.3 6.8-0.1 8.4 1.1 8.8 0.8 0.3 1.8 0.3 2.2 0.1 0.5-0.2 1.2-3.9 1.6-8.2 0.4-4.4 1-12 1.2-16.9 0.3-5 0.3-10.2 0-11.8-0.3-1.5-1.2-2.7-2-2.7-0.8 0-1.6 1.3-1.9 3.2z"></path><path class="a elQgRXKA_74" d="m309 471.5c-0.6 1.6-0.8 3.8-0.5 4.8 0.3 1.2 1.4 1.6 3.2 1.5 1.8-0.2 2.9-0.9 3-2 0.2-1-0.8-3-2.1-4.5l-2.4-2.8z"></path><path class="a elQgRXKA_75" d="m191 470.5c0 2.2-0.3 12.6-0.7 23-0.5 17-0.4 19.1 1.1 20.3 1.4 1 1.7 0.9 2.1-1.1 0.2-1.2 0.7-6.3 1-11.2 0.3-4.9 0.8-10.6 1-12.5 0.2-1.9-0.1-7.1-0.6-11.5-0.6-4.4-1.7-8.7-2.5-9.5-1.3-1.3-1.4-1-1.4 2.5z"></path><path class="a elQgRXKA_76" d="m309.1 462.1c-0.1 0.2 6 4.1 13.6 8.6 7.6 4.5 15.8 9.1 18.3 10.2 2.5 1.1 10.5 4.5 17.7 7.6 7.3 3 14.7 5.5 16.3 5.5 1.7 0 3-0.5 3-1.3 0-0.6-4.9-2.9-11.2-5-6.2-2.1-13.1-4.7-15.3-5.8-2.2-1.1-5.6-2.4-7.5-3-1.9-0.6-9.4-4.4-16.5-8.4-7.2-4.1-14.2-7.7-15.6-8-1.4-0.4-2.7-0.6-2.8-0.4z"></path><path class="a elQgRXKA_77" d="m274.4 457.3c-0.3 0.6-0.4 2.8-0.2 4.7 0.2 2.3 0.8 3.5 1.8 3.5 0.8 0 1.8-1.5 2.4-3.4 0.5-1.9 0.6-4 0.3-4.8-0.4-0.7-1.4-1.3-2.2-1.3-0.9 0-1.8 0.6-2.1 1.2z"></path><path class="a elQgRXKA_78" d="m205.6 455.3c-2.2 0.7-4.1 1.8-4.3 2.4-0.1 0.7 0.5 1.7 1.5 2.2 1 0.5 3.6 0.4 6.5-0.3 3.9-0.9 4.7-1.5 4.5-3.1-0.2-1.2-1.1-2.1-2.3-2.2-1.1-0.1-3.8 0.4-5.9 1z"></path><path class="a elQgRXKA_79" d="m226.4 451.8c-1.1 0.2-1.8 0.7-1.6 1 0.1 0.4 0.9 1.8 1.6 3.2l1.3 2.5c2.6-3.9 3.3-5.3 3.3-5.6-0.1-0.4-0.7-0.9-1.4-1.1-0.8-0.2-2.2-0.2-3.2 0z"></path><path class="a elQgRXKA_80" d="m472.1 460.8c-3.5 5.9-9.2 15.6-12.7 21.7-3.5 6.1-8.8 14.1-11.7 18-4 5.4-6 7.2-8.7 7.9-2.9 0.7-6.5 0-21-4.2-9.6-2.9-20-5.7-23-6.3-3-0.6-6.2-0.7-7-0.4-1.1 0.5-0.3 1.1 2.5 2.2 2.2 0.8 7.1 2.1 11 2.9 3.8 0.8 12.4 3.1 19 5 6.6 2 14 3.8 16.5 4 3.3 0.4 5 0 6.6-1.3 1.1-1 5.6-7.2 10-13.8 4.5-6.6 9.8-15.1 11.9-19 2.2-3.9 6.3-11.1 9.2-16 2.9-4.9 5.3-9.6 5.3-10.3 0-0.6-0.4-1.2-0.8-1.2-0.5 0-3.7 4.8-7.1 10.7z"></path><path class="a elQgRXKA_81" d="m259 446.6c-0.8 0.1-4.8 0.8-8.9 1.4-5.3 0.9-7.3 1.6-7.2 2.6 0 0.8 1 1.4 2.1 1.4q2 0 1.5 1.5c-0.3 0.8-0.1 1.7 0.5 2 0.6 0.3 2.9-0.1 5.3-0.9 2.3-0.8 5.7-1.7 7.5-2 1.8-0.3 3.6-1.5 4.2-2.6 0.6-1.1 1-2.5 1-3 0-0.6-1-0.9-2.2-0.9-1.3 0.1-3 0.3-3.8 0.5z"></path><path class="a elQgRXKA_82" d="m203.5 430.2c-1 1.2-1.7 3.4-1.6 4.8 0 1.4 0.7 3.1 1.6 3.8 0.8 0.6 2.8 1 4.5 0.7 1.7-0.3 3.7-1.5 4.5-2.7 1.1-1.6 1.3-3 0.7-4.8-0.5-1.4-1.6-2.8-2.5-3.2-1-0.5-2.6-0.8-3.7-0.8-1 0-2.6 1-3.5 2.2z"></path><path class="a elQgRXKA_83" d="m238 423c-1.1 1.1-2 2.8-2 3.8-0.1 0.9 0.7 2.5 1.7 3.4 1 1 3.3 1.8 5 1.8 2.3 0 3.6-0.6 4.3-2 0.6-1.1 1-2.3 1-2.8 0.1-0.4-1.1-1.9-2.5-3.5-1.4-1.5-3.2-2.7-4-2.7-0.8 0-2.4 0.9-3.5 2z"></path><path class="a elQgRXKA_84" d="m228 418c0 1.6 0.5 6.3 1.1 10.3 0.6 3.9 3.8 15.1 7.1 24.7 3.4 9.6 8.9 23.1 12.3 30 3.4 6.9 7 13.3 7.9 14.3 0.9 0.9 2 1.7 2.6 1.7 0.6 0 1-0.3 1-0.8 0-0.4-2.2-4.8-5-9.7-2.7-4.9-6.8-13.7-9.1-19.5-2.2-5.8-5.8-15.4-8-21.5-2.4-6.8-4.5-15.1-5.4-21.8-1.2-8.1-1.9-10.7-3-10.7q-1.5 0-1.5 3z"></path><path class="a elQgRXKA_85" d="m214 411.5c0 0.8 0.6 7 1.4 13.8 0.8 6.7 1.8 19.6 2.1 28.7 0.4 9.1 0.9 18.9 1.3 21.9 0.4 3 1.1 5.6 1.7 5.8 0.6 0.2 1.6-0.9 2.2-2.4 0.9-1.9 1.1-6.3 0.8-13.5-0.3-6-0.9-11.7-1.5-12.8-0.6-1.1-1.1-9.5-1.2-18.7-0.1-9.3-0.5-18.2-1-19.8-0.5-1.6-1.4-3.3-2.1-3.7-0.6-0.4-1.8-0.8-2.5-0.8-0.6 0-1.2 0.7-1.2 1.5z"></path><path class="a elQgRXKA_86" d="m176.4 410.5c-1 1.3-1.8 3.2-1.7 4.2 0.1 1 0.8 2.3 1.5 2.9 0.7 0.6 2.1 1.4 3 1.7 1.2 0.5 2.8-0.2 4.5-1.7l2.8-2.4c-3-6.2-4.1-7.2-5.9-7.2-1.4 0-3.2 1-4.2 2.5z"></path><path class="a elQgRXKA_87" d="m311 408.2c-0.8 0.7-1.3 2.1-1.2 3.3 0.1 1.1 0.9 2.8 1.9 3.7 1 1 3 1.8 4.5 1.8 1.5 0 3.4-0.7 4.2-1.5 0.9-0.8 1.6-2.1 1.6-2.7 0-0.7-0.7-2.3-1.5-3.5-1-1.6-2.5-2.3-4.8-2.3-1.8 0-3.9 0.5-4.7 1.2z"></path><path class="a elQgRXKA_88" d="m206.5 409.7c-0.4 1.5-0.3 4.4 0.3 6.3 0.6 1.9 1.8 4.4 2.6 5.5 0.8 1.1 1.7 1.8 2 1.5 0.4-0.3 0.1-3.8-0.6-7.9-0.7-4.1-1.8-7.6-2.4-7.8-0.7-0.3-1.5 0.8-1.9 2.4z"></path><path class="a elQgRXKA_89" d="m192 423.8c0.1 17.5 0.3 20.1 2 23.2l1.9 3.5c0.1-33.7-0.1-44.2-0.4-45-0.3-0.8-1.2-1.5-2-1.5-1.3 0-1.5 2.8-1.5 19.7z"></path><path class="a elQgRXKA_90" d="m284.5 395.8c-1 1-1.8 3.1-1.7 4.5 0.1 1.7 1.1 3.1 2.5 3.8 1.6 0.9 3 0.9 5.2 0.1 1.6-0.7 3.7-2.3 4.5-3.7 1.4-2.3 1.3-2.6-0.5-4.5-1.2-1.2-3.3-2.1-5.1-2-1.7 0-3.9 0.8-4.9 1.8z"></path><path class="a elQgRXKA_91" d="m310 393c0 1.6 0.9 4.4 2 6 1.6 2.4 2.7 3 5.5 3 2.5 0 3.8-0.6 4.5-2 0.6-1.1 1-2.8 1-3.8 0-0.9-1-2.7-2.2-3.9-1.6-1.6-3.5-2.3-6.5-2.3-4.1 0-4.3 0.1-4.3 3z"></path><path class="a elQgRXKA_92" d="m230.4 391.3c-0.4 0.7 0.1 1.7 1.2 2.5 1 0.7 2.8 1.2 3.9 1.2 1.9 0.1 1.8-0.1-0.5-2.5-1.4-1.4-2.8-2.5-3.2-2.5-0.4 0-1 0.6-1.4 1.2z"></path><path class="a elQgRXKA_93" d="m176 390.2c-0.8 0.7-1.3 2.3-1.2 3.8 0.1 1.4 0.9 3.3 1.9 4.2 1 1 2.7 1.8 3.8 1.8 1.1 0 2.6-1 3.3-2.2 0.9-1.4 1.1-3.3 0.7-4.8-0.4-1.4-1.3-2.8-1.9-3.2-0.6-0.4-2-0.8-3.2-0.8-1.1 0-2.6 0.5-3.4 1.2z"></path><path class="a elQgRXKA_94" d="m217 388c-1.2 0.7-1.2 1.2-0.3 2.2 0.7 0.8 1.9 1 2.8 0.5 0.8-0.4 1.3-1.3 1.2-2-0.2-0.6-0.8-1.3-1.3-1.4-0.5-0.2-1.6 0.2-2.4 0.7z"></path><path class="a elQgRXKA_95" d="m602.8 386.5c-0.3 0.6-2.4 5.5-4.6 11-2.2 5.5-7.7 17.6-12.2 27-4.5 9.4-9.7 20.6-11.5 25-1.8 4.4-3.6 9.1-4 10.5-0.4 1.4-4.9 10.8-10 21-5.1 10.2-11.7 23-14.7 28.5-3 5.5-8.4 15.2-12 21.5-3.6 6.3-8 13.8-9.9 16.6-1.9 2.8-5.6 8.3-8.4 12.2-3.9 5.5-6 7.6-9.5 9.1-2.5 1.1-8.1 2.6-12.5 3.5-4.4 0.8-17.4 2.2-29 3.1-11.5 0.8-22.1 1.8-23.5 2-1.4 0.3-14.2 0.7-28.5 1-14.3 0.3-33.6 0-43-0.6-14.4-0.9-18.1-0.9-24.5 0.4-4.1 0.9-12.4 3.1-18.5 5.1-9.5 3-11.7 3.4-16 2.7-2.7-0.5-9.5-1.6-15-2.5-5.5-1-10.7-1.5-11.5-1.2-0.8 0.3-4 1.3-7 2.4-5.3 1.8-5.6 2.1-9.6 9.7-2.3 4.4-4.7 8.1-5.3 8.2-0.7 0.2-0.3-2.4 1-6.9 1.1-4 2.8-8.1 3.7-9.1 0.9-1.1 5.5-4 10.2-6.5l8.5-4.7c-6.2-0.5-11.1 0.3-15 1.4-3.8 1.1-7.9 3-9 4.1-1.1 1.2-2.8 4.9-3.7 8.3l-1.8 6.2c0.7-11.6 1.3-16.1 1.8-17.5 0.6-1.7 4-4.3 10.6-8 5.3-3 9.8-6.1 10.1-6.7 0.3-0.9-0.6-1.3-3.2-1.3-2.1 0-6.9 1.1-10.8 2.5-3.8 1.4-8.1 3.4-9.5 4.4-1.7 1.2-3.7 5-6.1 11.7-2 5.4-4.2 10.5-4.8 11.2-0.6 0.6-1.5 1.2-2.1 1.2-0.5 0-1-0.9-1-2 0-1.1 1.9-7.7 4.1-14.7 2.3-7.1 4.9-13.6 5.8-14.5 0.9-1 3.6-2.3 6.1-2.9 2.5-0.6 7.4-2.6 11-4.5 3.6-1.9 7.6-4.4 9-5.5l2.5-2.1c-3.9 0.8-10.4 3-17 5.4-9.9 3.5-12.7 5-15.8 8.3-2.2 2.2-4.8 6.6-6 9.9-1.2 3.2-2.8 6.4-3.5 7-1 0.8-1.3 0.7-1.2-0.4 0-0.8 0.9-4 2.1-7 1.1-3 3.4-7.9 5-10.8 2.5-4.5 3.5-5.3 7.2-6.3 2.3-0.6 10.1-3.7 17.2-7 7.2-3.2 14.1-5.9 15.5-5.9 1.4 0 7.9 1.8 14.5 4 6.6 2.2 14 4.7 16.5 5.5 2.5 0.7 8.2 2.1 12.8 2.9 4.5 0.9 8.5 1.4 9 1.2 0.4-0.2 3.7 0 7.5 0.5 5.8 0.8 8.5 0.5 20.5-2.1 7.5-1.7 18-3.9 23.2-5 5.2-1.1 14.5-3.3 20.5-5 6.1-1.6 16.2-4.7 22.5-7 6.3-2.2 15.8-5.2 21-6.6 5.2-1.4 13.8-3.9 19-5.5 6.3-1.9 10.4-3.9 12.3-5.7 1.5-1.5 2.7-3.3 2.7-3.9 0-0.7 1.6-6.8 3.6-13.5 1.9-6.8 4.7-15.7 6.1-19.8 1.4-4.1 3.1-8.4 3.8-9.5 0.7-1.1 1.9-4.2 2.8-7 0.9-2.7 3.4-10.2 5.7-16.5 2.2-6.3 5.2-16.2 6.6-22 1.4-5.8 4.3-15.7 6.5-22 2.2-6.3 3.9-11.6 3.9-11.7 0-0.2-2.1 1.4-4.7 3.4-2.7 2.1-9.1 7.4-14.3 11.9-5.2 4.5-13.2 11.7-17.7 16l-8.2 7.9c1.4 16.7 1.6 17.5 6.7 25.1 2.9 4.3 5.5 9.5 5.8 11.4 0.3 1.9 0.9 4.5 1.5 5.7 0.7 1.7 0.2 4.2-1.7 9.5-1.4 4-3.9 12.5-5.5 18.8-1.7 6.3-3.6 12.4-4.3 13.5-0.9 1.4-5.9 3.4-17.7 6.9-9 2.6-18 5.4-19.9 6.1-1.9 0.8-6.5 2.5-10.2 3.9-3.8 1.4-7.4 2.6-8 2.6-0.7 0-6.9 1.4-13.8 3-6.9 1.7-16.5 4.4-21.5 6-4.9 1.6-10.6 3.1-12.5 3.5-1.9 0.3-8.7 1.8-15 3.2l-11.5 2.6c-23.6-2.7-32.7-4.4-39-6.3-5.5-1.7-14.5-4.7-20-6.7l-10-3.6c-7.7 2.8-16.4 6.5-24.3 10.2-12.3 5.6-14.7 7.1-16.8 10.3-1.3 2.1-3.6 6.8-5 10.5-1.4 3.8-2.8 7.9-3.1 9.3-0.3 1.6 0.1 3 1.1 3.7 1.1 0.9 2.2 1 3.6 0.3 1.1-0.5 2.9-2.9 3.9-5.3 1.1-2.3 2-3.4 2-2.5 0.1 1-0.9 4.4-2.1 7.5-1.1 3.2-2.2 8.3-2.2 11.3-0.1 5.2 0 5.5 2.3 5.5 1.4 0 3.2-1.1 4.3-2.5 1-1.4 3.4-6.8 5.2-12l3.2-9.5c10-5 13.4-6.5 13.9-6.5 0.6 0-1.9 1.7-5.5 3.8-3.6 2.2-7 5-7.7 6.3-0.7 1.3-1.7 5.7-2.3 9.6-0.5 4-0.7 8.7-0.2 10.4 0.4 1.7 1.2 3.4 1.7 3.7 0.6 0.3 2-0.7 3.3-2.1 2.1-2.6 2.2-2.6 1.8-0.5-0.3 1.3-0.7 3.5-1 5-0.4 1.9-0.1 3.2 0.9 4 1.3 1.1 1.9 0.9 3.8-0.7 1.2-1.1 2.9-2.9 3.7-3.9 0.8-1.1 2.6-4.2 4-6.9 2.2-4.5 3.1-5.2 8-6.9 5-1.8 6.3-1.8 14.5-0.8 5 0.7 12.4 1.4 16.5 1.7 5.9 0.4 9.7-0.1 18-2.2 5.8-1.4 13.7-3.6 17.5-4.7 6.8-2.1 7.7-2.1 26-0.9 12.3 0.8 28.1 1 45 0.6 16.4-0.5 36.5-1.7 54.5-3.5 19.7-2 30.4-3.5 34.8-4.9 4.5-1.5 6.8-3 8.6-5.4 1.3-1.7 3.1-4.8 4.1-6.7 1-1.9 3.2-5.3 5-7.5 1.8-2.2 6.5-9.9 10.5-17 3.9-7.1 7.5-13.5 8-14 0.5-0.5 3.6-6 6.9-12 3.3-6.1 10.5-20 16-31 5.5-11 11.3-23.4 12.9-27.5 1.7-4.1 4.6-11.1 6.5-15.5 1.9-4.4 4.7-10.5 6.2-13.5 1.5-3 4.3-9.6 6.2-14.5 1.9-4.9 4.3-11.5 5.4-14.5 1.1-3 1.9-6.2 1.7-7-0.2-0.9-0.6-1.1-1-0.5z"></path><path class="a elQgRXKA_96" d="m265.7 582.3c-2.1 1.8-3.9 4.5-4.2 6.2-0.5 2.4-0.3 2.3 0.8-0.8 1-2.7 2.6-4.4 5.8-6.2 2.4-1.4 3.7-2.5 2.8-2.5-0.8 0-3.2 1.5-5.2 3.3z"></path><path class="a elQgRXKA_97" d="m282.9 378.5c-1.1 1.3-1.2 2.5-0.4 5.3 0.7 2.5 1.7 3.8 3 4 1.1 0.2 3.1-0.8 4.5-2.3 2.1-2.2 2.4-3 1.5-5.3-0.8-2-1.8-2.8-4.1-3-1.9-0.2-3.6 0.3-4.5 1.3z"></path><path class="a elQgRXKA_98" d="m312 373.2c-1.2 1.2-2.1 2.5-2 3 0 0.4 1.1 1.9 2.5 3.3 1.5 1.5 3.4 2.4 4.8 2.3 1.7-0.2 2.3-1 2.5-3.8 0.2-2.7-0.2-3.9-2-5.2-1.3-1-2.6-1.8-3-1.8-0.4 0-1.7 1-2.8 2.2z"></path><path class="a elQgRXKA_99" d="m177.4 367.2c-1.2 0.6-2.5 2.1-2.9 3.2-0.4 1.2-0.4 3.1-0.1 4.4 0.4 1.4 1.6 2.4 3.3 2.8 1.8 0.3 3.6 0 5-1 1.5-1.1 2.3-2.6 2.3-4.6q0-3-2.3-4.5c-1.2-0.8-2.4-1.5-2.7-1.4-0.3 0-1.5 0.5-2.6 1.1z"></path><path class="a elQgRXKA_100" d="m220.9 368.2c-2.4 1.7-8.8 7.2-14.3 12.2-5.4 5-10.5 10.3-11.2 11.9-0.8 1.5-1.2 3.4-0.9 4.2 0.3 0.8 1.3 1.5 2.2 1.5 1 0 3.8-1.4 6.2-3.2 2.4-1.8 6.9-4.7 10-6.3 3.1-1.7 8.2-4 11.3-5.3 5.3-2 6-2.1 8.8-0.7 1.6 0.8 4.3 1.5 6 1.5 1.6 0 3.8 0.7 4.7 1.5 1 0.8 2.7 2.1 3.8 2.9 1.6 1.1 2 2.4 1.8 6.3-0.2 3.8 0.2 5.1 1.8 6.3 1.1 0.8 1.7 1.9 1.2 2.3-0.4 0.5-6.3-1-13.1-3.2-9.9-3.3-13.6-4.1-19.7-4.1-4.1 0-8.2 0.2-9 0.5-0.8 0.3-1.5 1.5-1.5 2.8-0.1 1.6 1.2 2.9 4.7 4.8 2.6 1.5 9.7 4.7 15.8 7.3 6.1 2.5 13 5.7 15.5 6.9 2.5 1.3 5.8 4.2 7.5 6.4 1.6 2.2 5 6.8 7.5 10.2 2.5 3.5 6.5 7.6 9 9.1 2.5 1.6 7.9 4.1 12 5.6 4.1 1.4 9.6 3.7 12.2 5 2.7 1.3 5.4 2.4 6 2.4 0.9 0.1 0.9-0.4-0.2-1.6-0.8-1-4.2-3-7.5-4.4-3.3-1.5-8.5-3.5-11.5-4.5-3-1-7.3-3-9.5-4.5-2.2-1.6-5.2-4.1-6.6-5.7-1.5-1.5-4.3-5.4-6.3-8.5-2-3.2-5.3-7.2-7.4-8.9-2-1.6-10.5-5.8-18.7-9.3-8.3-3.4-16-6.8-17.3-7.4-1.2-0.7-2.2-1.6-2.2-2.2 0-0.5 1.5-1.1 3.2-1.2 1.8-0.1 5.5 0 8.3 0.1 2.7 0.1 9.7 1.8 15.5 3.6 5.8 1.9 11.7 3.5 13.2 3.5 1.9 0 3.2-0.7 3.9-2.2 0.6-1.3 2.1-3.1 3.3-4 2-1.7 2-1.8-2.7-1-3.5 0.5-4.7 0.4-4.7-0.5 0-0.7 0.7-2 1.5-2.8 1.3-1.3 1.3-1.7 0-3.2-0.8-1-1.5-2.8-1.5-4 0-1.3 0.6-2.5 1.2-2.7 0.7-0.3-0.6-0.5-3-0.5-2.3-0.1-4.4-0.5-4.7-1.1-0.3-0.5 0.1-1.1 0.7-1.1 0.7-0.1-1.7-0.5-5.4-0.8-3.7-0.3-7.3-1.2-8-1.9-1-1-1.1-1.6-0.1-3.2 0.7-1.1 1.1-2 0.8-2-0.3 0-2.4 1.5-4.8 3.3-2.3 1.8-6.5 4.1-9.2 5.1-2.8 1-6.8 2.7-9 3.8-2.2 1.2-4.9 2.9-6 3.8-1.1 1-3.2 2.5-4.8 3.4-2.3 1.4-2.7 1.4-2.7 0.1 0-0.8 2.1-3.8 4.7-6.6 2.7-2.8 8.2-7.7 12.3-10.8 5.7-4.4 8.9-6 13.5-7 5.6-1.3 6.6-1.2 16 1.4 5.5 1.5 12.4 3.3 15.2 4.1 3.9 1 5.9 2.3 7.7 4.7 1.3 1.7 3.8 6.6 5.7 10.7 1.8 4.1 6.3 12 10.1 17.5 3.7 5.5 8.5 11.6 10.5 13.5 2.1 2 5.6 4.9 7.8 6.5 2.2 1.6 7.6 4.4 12 6.2 4.4 1.8 8.6 3.3 9.2 3.3 0.7 0 1.3-0.4 1.3-1 0-0.5-0.8-1.3-1.8-1.6-0.9-0.4-4.6-1.8-8.2-3.1-3.6-1.4-9-4.2-12-6.3-3-2-6.7-5.2-8.1-7.1-1.4-1.9-5.1-7-8.1-11.4-3.1-4.4-7.8-12.7-10.6-18.5-2.8-5.8-6.3-11.6-7.7-13-1.8-1.7-4.8-2.9-8.9-3.6-3.3-0.6-11.4-2.5-17.9-4.3-6.4-1.7-12.3-3.1-13-3.1-0.8 0-3.3 1.4-5.8 3.2z"></path><path class="a elQgRXKA_101" d="m256.1 360.5c-0.6 0.8-1 2.3-0.8 3.3 0.1 0.9 1.1 1.8 2.2 2 1.1 0.2 2.5-0.3 3.2-1 1-1 0.9-1.8-0.2-3.5-0.8-1.3-1.9-2.3-2.4-2.3-0.5 0-1.4 0.7-2 1.5z"></path><path class="a elQgRXKA_102" d="m285.5 356.5c-1.3 1.3-2.4 3.4-2.5 4.7 0 1.3 0.5 2.9 1.2 3.6 0.7 0.7 2.3 1.2 3.5 1.2 1.3 0 3.2-1 4.2-2.3 1.2-1.3 1.7-3 1.4-4.2-0.3-1.1-1.3-2.8-2.2-3.8-0.9-1-2-1.8-2.4-1.7-0.4 0-1.9 1.1-3.2 2.5z"></path><path class="a elQgRXKA_103" d="m313.3 354.1c-1.7 0.7-2.2 1.6-2.1 3.6 0.2 1.8 1.3 3.3 3 4.3 2.1 1.1 3.2 1.2 4.5 0.4 1-0.6 1.9-2.1 2-3.3 0.2-1.1-0.6-3-1.7-4.1-1.1-1.1-2.3-2-2.8-1.9-0.4 0-1.7 0.4-3 1z"></path><path class="a elQgRXKA_104" d="m177 349.2c-0.8 0.7-1.3 2-1.2 3 0.1 1 1.2 2.1 2.5 2.4 1.2 0.4 3 0.4 4 0 0.9-0.3 1.9-1.3 2.2-2.1 0.3-0.8-0.1-2.2-0.8-3-0.6-0.9-2.1-1.6-3.3-1.5-1.1 0-2.6 0.5-3.4 1.2z"></path><path class="a elQgRXKA_105" d="m205.2 347.7c0.2 1.4 0.9 2.8 1.6 3 0.7 0.2 1.2-0.8 1.2-2.7 0-2.1-0.5-3-1.6-3-1.1 0-1.5 0.8-1.2 2.7z"></path><path class="a elQgRXKA_106" d="m230.1 343c-1.4 0.5-2.4 1.4-2.3 2 0.1 0.5 1.1 2.4 2.2 4 1.3 1.9 2.9 3 4.3 3 1.3 0 2.8-0.6 3.5-1.3 0.7-0.6 1.2-2.3 1.2-3.7 0-1.4-0.5-3.1-1.2-3.8-0.7-0.7-2.2-1.2-3.3-1.2-1.1 0.1-3.1 0.5-4.4 1z"></path><path class="a elQgRXKA_107" d="m255.5 343.5c-1.3 1.3-2.4 3-2.5 3.7 0 0.7 0.7 2.1 1.7 3 1.4 1.3 2.6 1.5 4.8 0.9 2.6-0.6 3-1.2 3-4.2 0-2.7-0.6-3.8-2.3-4.7-2-1-2.6-0.9-4.7 1.3z"></path><path class="a elQgRXKA_108" d="m313.2 337c-0.7 1.1-1 2.8-0.8 3.8 0.3 0.9 1.7 2.5 3.3 3.6 1.7 1.1 3.7 1.6 5.1 1.2 1.2-0.3 2.6-1.4 3.1-2.3 0.7-1.3 0.4-2.7-1-5-1.5-2.7-2.5-3.3-5.2-3.3-2.2 0-3.7 0.6-4.5 2z"></path><path class="a elQgRXKA_109" d="m282.9 336.6c-1 1.1-1.2 2.5-0.6 4.7 0.4 1.8 1.3 3.8 2 4.5 0.7 0.7 2 1.3 3 1.2 0.9 0 2.6-0.9 3.7-2 1.1-1.1 2-3 2-4.3 0.1-1.2-0.7-3-1.7-3.9-1-1-3-1.8-4.4-1.8-1.5 0-3.3 0.7-4 1.6z"></path><path class="a elQgRXKA_110" d="m204.1 327.5c-0.8 1.1-0.7 1.9 0.4 3 0.8 0.8 2.1 1.3 2.8 1 0.8-0.4 1.5 1 2 4.2 0.5 2.6 0.8 10.9 0.6 18.3-0.2 12.7-0.1 13.5 1.7 13.5 1.8 0 1.9-1 2.2-15.5 0.2-12.7-0.1-16.5-1.5-20.8-1.6-4.6-2.1-5.3-4.4-5.2-1.5 0-3.2 0.7-3.8 1.5z"></path><path class="a elQgRXKA_111" d="m174 327.6c-0.6 0.8-0.7 2.5-0.3 3.9 0.5 1.4 1.5 2.8 2.3 3.1 0.8 0.3 2.3-0.4 3.3-1.5 1.7-2.1 1.7-2.1 2.8 0.6 0.6 1.6 2 5.3 3 8.3 1.1 3 3.1 10.9 4.5 17.5 1.4 6.6 2.8 15.7 3.2 20.3 0.4 4.5 1 8.2 1.5 8.2 0.4 0 1.4-1.4 2.2-3 1.4-2.7 1.3-4.1-0.5-14.8-1.1-6.4-2.9-15.3-4-19.7-1.2-4.4-3.5-11.6-5.3-15.9l-3.2-8c-6.9-0.3-8.9 0.1-9.5 1z"></path><path class="a elQgRXKA_112" d="m255.1 320.7c-1 0.3-1.4 1.7-1.3 4.4 0.2 3.2 0.6 4 2.5 4.3 1.2 0.3 3.2-0.1 4.5-0.7 1.3-0.7 2.5-1.9 2.8-2.7 0.2-0.8 0.2-2.2 0-3-0.3-0.8-1.6-1.8-2.8-2.2-1.3-0.4-2.7-0.7-3.3-0.7-0.6 0-1.7 0.3-2.4 0.6z"></path><path class="a elQgRXKA_113" d="m231.5 320.7c-0.5 0.3-0.8 2.6-0.7 5 0.2 3.6 0.6 4.5 2.8 5.6 2.4 1.1 2.8 0.9 5-1.5 1.3-1.6 2.4-3.7 2.4-4.8 0-1.1-1-2.7-2.3-3.5-1.2-0.8-3.1-1.5-4.3-1.5-1.1 0-2.4 0.3-2.9 0.7z"></path><path class="a elQgRXKA_114" d="m284.2 318.3c-0.5 0.6-1.2 2.2-1.6 3.4-0.4 1.6 0 2.9 1.4 4.3 1.1 1.1 2.7 2 3.5 2 0.8 0 2.4-0.9 3.5-2 1.1-1.1 2-2.9 2-4 0-1.1-0.7-2.7-1.5-3.5-0.8-0.8-2.6-1.5-3.9-1.5-1.3 0-2.8 0.6-3.4 1.2z"></path><path class="a elQgRXKA_115" d="m316.3 313.7c-0.7 0.3-2 1.8-2.8 3.4-1.2 2.4-1.3 3.4-0.3 5.5 0.7 1.4 2.4 2.8 3.8 3 1.4 0.3 3.4-0.1 4.5-0.9 1.1-0.7 2.3-2.7 2.7-4.3 0.5-2.2 0.1-3.4-1.5-5.2-1.2-1.2-2.9-2.2-3.7-2.1-0.8 0-2.1 0.3-2.7 0.6z"></path><path class="a elQgRXKA_116" d="m229.6 306.5c-0.3 0.8-0.4 1.9-0.1 2.5 0.3 0.6 2.3 1 4.5 1 2.5 0 4-0.5 4-1.3 0-0.6-0.5-1.8-1.2-2.5-0.7-0.7-2.5-1.2-4-1.2-1.4 0-2.9 0.7-3.2 1.5z"></path><path class="a elQgRXKA_117" d="m202.9 306.8c-0.5 0.6-0.7 1.9-0.4 2.7 0.4 1.2 2 1.4 7.2 1.2 6.6-0.2 6.8-0.3 7-3l0.3-2.7c-10.4 0.4-13.5 1-14.1 1.7z"></path><path class="a elQgRXKA_118" d="m595.6 302.8c-0.2 0.9-0.7 3.8-1 6.4-0.6 4.6-0.4 5.1 5 12 3 4 6.6 9.5 7.9 12.3 1.3 2.7 3.3 8.8 4.5 13.5 1.9 7.3 2.1 10.2 1.7 20.5-0.3 6.6-0.8 12.9-1 14-0.2 1.1-0.6 3.4-1 5-0.3 1.6-0.9 5.2-1.2 8-0.4 2.7-1.5 6.8-2.5 9-1 2.2-3.3 6.2-4.9 9-1.7 2.7-3.9 6.8-5 9-1 2.2-3.3 5.6-5 7.5-1.7 2-3.9 6.5-5.2 10.5-1.2 3.9-3.6 10.1-5.4 14-1.8 3.9-5.3 11.7-7.8 17.5-2.5 5.8-8.3 18.4-12.9 28-4.6 9.6-12.4 24.5-17.3 33-4.8 8.5-10.1 17.4-11.6 19.7-2.8 4.1-2.9 4.9-3.2 17-0.1 7.5-0.7 13.6-1.4 14.8-1.1 1.8-1.2 1.9-1.7 0.2-0.3-0.9 0.1-2.9 1-4.5 1.3-2.2 1.4-2.8 0.3-3.4-0.8-0.4-2.6-0.1-4.1 0.5-1.4 0.7-5.6 4-9.2 7.4-3.6 3.5-6.6 6.8-6.6 7.3 0 0.5-0.3 1-0.8 1-0.4 0-1.6-1-2.7-2.1-1.9-1.9-2.4-1.9-11.5-0.8-7.6 1-12.1 1-22.5-0.1-7.2-0.7-17.1-1.2-22-1.2-5 0.1-12.8 0.6-17.5 1.2-4.7 0.6-14.6 1.7-22 2.5-7.6 0.8-17 2.6-21.5 4-4.4 1.4-9 3.2-10.3 4-1.2 0.8-2.2 2.1-2.2 2.7 0 0.9 2.3 1.5 6.7 1.9 5.4 0.5 8.2 1.5 13.8 4.7 3.9 2.2 9.2 6.5 12 9.5 2.7 3 6.8 7.4 9 9.8 2.2 2.4 6.3 7.8 9.1 11.9 2.8 4.1 5.3 8.6 5.7 10 0.3 1.4 2 4 3.9 5.8 2.3 2.2 4.2 3.2 6.3 3.2 1.6 0 4.2-0.8 5.6-1.8 1.5-0.9 4.7-3.1 7-4.8 2.4-1.8 7.5-4.4 11.4-5.9 3.9-1.5 8.1-3.8 9.5-5.2 1.9-1.8 2.3-2.7 1.5-3.9-0.6-0.9-2.8-2.6-5-3.9-2.2-1.2-11.7-6.7-21-12-9.4-5.4-18.4-10.4-20-11.2-1.6-0.8-4.6-2.5-6.5-3.9-1.9-1.3-2.8-2.4-2-2.4 0.8 0 6.2 2.4 12 5.3 5.8 2.9 15 7.7 20.5 10.6 5.5 3 11.8 6.6 14 8.1 2.2 1.4 6.7 4.1 10 5.9l6 3.3c8-4 8.7-4.6 7.5-5.4-0.8-0.5-4.1-2.4-7.3-4.3-3.1-1.9-5.5-3.8-5.2-4.3 0.2-0.4 2.1 0.3 4.2 1.4 2.1 1.2 6.5 2.9 9.8 3.9l6 1.8c14-4.7 21.6-7.1 26-8.3 4.4-1.1 8.6-2.3 9.2-2.6 0.8-0.2-1.5-3.2-5.5-7.2-3.8-3.7-7.8-8.8-9-11.5-1.2-2.6-2.2-5.8-2.2-7.2 0-1.4 0.3-2.7 0.7-2.9 0.5-0.2 0.9 0.3 0.9 1.2 0.1 1 1 3.7 2.1 6.2 1.1 2.5 4.8 8 8.1 12.2 3.4 4.3 6.8 7.8 7.4 7.8 0.7 0 5.6-0.8 10.8-1.9 5.2-1 12.4-2.2 16-2.5 4.6-0.5 9.9-0.1 18 1.3 6.3 1.1 15.8 3.4 21 5.1 5.2 1.7 12.4 4.5 16 6.1 3.6 1.7 8.5 4 10.9 5.2 2.4 1.2 6.2 3.9 8.5 5.9 2.3 2 3.5 3.7 2.8 3.8-0.6 0-2.4-1-4-2.3-1.5-1.3-4.7-3.5-7.2-4.9-2.5-1.4-9-4.4-14.5-6.6-5.5-2.2-13.8-5.1-18.5-6.3-6.9-1.9-11.1-2.3-22-2.3-8.4 0-17.5 0.7-24 1.8-5.8 1-14.8 2.9-20 4.2-5.2 1.3-12.4 3.4-16 4.5-3.6 1.2-11.5 3.9-17.5 6.1-6.1 2.3-13.3 5-16 6.2-2.8 1.2-7 3.5-9.5 5.2-2.5 1.6-7.1 4.3-10.3 5.9-3.7 1.9-5.7 3.6-5.7 4.7 0 1 0.8 1.8 1.7 1.8 1 0 2.7-0.6 3.8-1.3 1.1-0.8 4.5-2 7.5-2.7 3.2-0.8 8.4-1.1 12.5-0.8 5.1 0.4 8.7 1.4 13.5 3.8 3.6 1.8 9.4 5.8 12.9 8.9 3.6 3.1 8.8 8.5 11.6 12.1 2.8 3.6 9 12.2 13.8 19.2 4.8 7.1 8.7 13.3 8.7 13.8 0 0.5 0.4 1.1 0.8 1.2 0.4 0.2 2.7 3.2 5.1 6.8 2.5 3.8 7.1 8.7 11 11.8 3.6 2.9 10 6.9 14.1 8.8 4.6 2.2 10 4 14 4.5 3.6 0.5 10 0.8 14.2 0.9 4.3 0 11.1-0.6 15-1.4 4-0.8 12-3.3 17.8-5.7 5.8-2.4 13-5.9 16-7.9 3-2.1 6.9-4.4 8.5-5.2 1.6-0.9 4.5-1.8 6.2-2.2 2-0.3 3.3-0.2 3.3 0.4 0 0.5-2.3 2.1-5 3.5-2.8 1.4-5 3-5 3.5 0 0.5 0.6 1 1.2 1.1 0.7 0 4.2 0 7.8-0.1 4.4-0.1 10.1-1.3 17.5-3.7 6-2 14.6-4 19-4.4 5.6-0.6 9.3-1.7 12.2-3.4 3.1-1.8 4.9-3.8 6.4-7.3 1.2-2.6 1.9-5.6 1.6-6.7-0.3-1.1-1.6-3.6-2.9-5.5-1.5-2.2-3.8-3.9-6.3-4.8-2.2-0.7-5.4-2-7-2.7-1.6-0.8-5.3-1.7-8-2l-5-0.7c-8.5 8.9-13 13.4-15.5 15.7-2.5 2.4-5.6 5.2-7 6.3-1.4 1-3.6 2.5-5 3.2-1.4 0.7-6.3 2.3-11 3.6-4.7 1.3-12.8 2.8-18 3.5-5.2 0.6-12 0.8-15 0.4-3-0.3-8.2-1.3-11.5-2.2-3.3-0.9-10.7-3.6-16.5-6.1-5.8-2.5-12.8-5.8-15.5-7.3-2.8-1.6-8.1-5.6-12-8.9-3.9-3.4-7.3-6.8-7.8-7.6-0.4-0.8-0.4-1.4 0-1.4 0.5 0 2.6 1.4 4.8 3.3 2.2 1.8 6.2 4.9 9 6.9 2.7 1.9 8.1 5.3 12 7.3 3.9 2.1 10.1 4.9 14 6.3 3.9 1.3 9.5 3.1 12.5 3.8 3 0.8 9.8 1.7 15 2 7.1 0.5 11.6 0.2 18-1 4.7-1 11.4-2.6 15-3.6 4-1.2 8.9-3.6 12.5-6.3 3.3-2.4 8.2-6.4 11-8.9 2.7-2.5 7.4-7.9 10.2-12.1 2.9-4.3 5.6-9.2 5.9-11 0.4-1.7 1.2-3.8 1.8-4.6 0.7-0.9 1-6.7 0.9-16.5-0.1-10.5-0.8-18.7-2.3-27.1-1.4-7.6-3.6-15.3-6-21-2-5-4-11.3-4.4-14-0.3-2.8-1.9-9.3-3.5-14.5-1.6-5.2-4.1-14.2-5.7-20-1.5-5.8-4-12.8-5.5-15.5-1.4-2.8-3.2-7.9-3.9-11.5-0.6-3.6-2.7-12.1-4.5-19-1.8-6.9-4-16.3-4.8-21-0.9-4.7-3-14.8-4.6-22.5-1.7-7.7-3.3-15.6-3.6-17.5-0.3-1.9-0.9-5.8-1.5-8.5-0.5-2.8-1.2-7.7-1.5-11-0.4-3.3-0.8-6.9-1-8-0.1-1.1-0.8-5.4-1.4-9.5-0.7-4.1-1.7-9.1-2.2-11-0.5-1.9-1.4-6.6-1.9-10.5-0.6-3.9-1.7-10.4-2.6-14.5-0.9-4.1-2.8-11.8-4.1-17-1.4-5.8-4.7-14.3-8.5-22-3.3-6.9-7.7-15-9.7-18-2-3-6.3-8.3-9.6-11.8-3.3-3.6-7.2-7.1-8.8-7.8-1.5-0.8-3.1-1.4-3.6-1.4-0.6 0-1.2 0.8-1.5 1.7z"></path><path class="a elQgRXKA_119" d="m686 702.5c-4.7 4.8-11 10.5-14 12.8-5.2 3.8-5.4 4.1-3.3 4.9 1.4 0.5 2.3 1.6 2.3 2.8 0 1.2-1.5 3-3.8 4.5-3.5 2.3-3.5 2.5-1.2 2.5 1.4 0 7-1.4 12.5-3.1 5.5-1.7 14.7-3.9 20.5-4.8 5.8-1 12-2.6 13.8-3.5 1.7-0.9 4.1-2.8 5.2-4.4 1.2-1.5 2.1-4.2 2-6 0-2.2-0.9-4-2.8-5.8-1.5-1.5-5.1-3.7-8-5-2.8-1.3-7.3-2.7-10-3l-4.7-0.5zm-186.7-103.4c-0.1 0.7 1.2 4 3 7.2 1.8 3.3 4.9 7.4 6.9 9.3 2.1 1.8 4.3 3.3 4.8 3.3 0.5 0 0.7-0.5 0.3-1.2-0.4-0.7-1.5-1.8-2.5-2.5-1-0.7-3.5-4.3-5.7-8-2.1-3.7-4.5-7.4-5.2-8.1-1.2-1.2-1.5-1.2-1.6 0zm32.2-3.2c1.1 1.2 3.1 2.8 4.5 3.5 1.4 0.7 5.9 2.4 10 3.8 4.1 1.4 9.9 3 12.7 3.6 2.9 0.6 9 1.1 13.5 1.1 4.6 0 13-0.7 18.8-1.5 5.8-0.8 14.5-1.9 19.5-2.4 5-0.6 10.8-0.8 13-0.5l4 0.4c-6.4-3.1-9.6-3.3-23.5-3.2-9.1 0.2-19.6 0.8-23.5 1.4-3.9 0.6-11.3 0.8-16.5 0.6-6.2-0.3-12.8-1.4-19-3.3-5.2-1.5-10.9-3.4-12.5-4.2l-3-1.5zm14.5-35c0 0.5 1.7 2.7 3.8 4.7 2.1 2.1 7.2 6 11.3 8.7 4.1 2.8 10.8 6.5 14.9 8.3 4.3 1.8 10.3 3.5 14 4 4 0.4 6.3 0.3 5.9-0.3-0.4-0.5-2.4-1.3-4.5-1.7-2.2-0.5-6.6-2-9.9-3.5-3.3-1.4-8.7-4.4-12-6.8-3.3-2.3-8.3-5.3-11-6.6-2.8-1.4-6.5-3.7-8.3-5.2-1.7-1.4-3.4-2.6-3.7-2.6-0.3 0-0.5 0.4-0.5 1zm17.8-45.5c0.5 1.1 3.6 4.8 6.8 8.1 3.3 3.4 9 8.8 12.9 12 3.9 3.1 10.1 7.2 14 9.1 3.9 1.8 8.1 3.3 9.5 3.3 2.3 0.1 2.4-0.1 1-1.5-0.8-0.9-2.4-1.9-3.5-2.2-1.1-0.3-4-2-6.5-3.6-2.5-1.7-4.7-3.3-5-3.7-0.3-0.3-4.1-3-8.5-5.9-4.4-3-10.5-7.5-13.5-10-3-2.5-6.1-5.3-6.8-6.1-1.1-1.3-1.2-1.2-0.4 0.5z"></path><path class="a elQgRXKA_120" d="m575.8 296.8c-1.5 0.3-3.8 0.7-5.2 0.9-2.1 0.2-3.5 2-7.6 9.5-2.8 5.1-9.5 15.2-15 22.3-5.5 7.1-11.8 15.5-14.2 18.5-2.3 3-8.7 9.8-14.1 15-5.5 5.3-12.4 10.9-15.7 12.7-3.4 1.9-7.4 3.3-9.2 3.3-2.6-0.1-4.2-1-7.6-4.8-2.6-2.8-5.5-7.8-7.5-12.6-1.7-4.3-3.8-8.1-4.5-8.5-0.7-0.3-1.4-0.4-1.6-0.1-0.2 0.3 0.2 7.9 0.9 17 0.7 9.1 1.9 22.2 2.7 29.3 0.7 7 1.6 12.7 2.1 12.7 0.4 0 3.3-2.2 6.5-4.9 3.1-2.7 10.9-9.5 17.2-15 6.3-5.6 15.3-13.4 20-17.4 8.1-6.9 8.6-7.5 11-14.6 1.4-4.1 4.8-11.2 7.5-15.9 3.3-5.6 7.6-10.9 12.8-15.8 4.2-4.1 11.2-9.4 15.5-11.9 4.2-2.5 9.2-4.7 11-5 2.8-0.4 3.3-1 3.9-4.3 0.3-2 0.7-5.3 0.7-7.2 0.1-3.3-0.1-3.5-3.4-3.6-1.9-0.1-4.7 0.1-6.2 0.4z"></path><path class="a elQgRXKA_121" d="m560.7 291.3c-0.4 0.9-4.2 3.3-8.5 5.3-4.2 2-9.5 4.9-11.7 6.4-2.2 1.5-8.3 5-13.5 7.7-5.2 2.8-12 5.9-15 7-3 1.2-8 2.4-11 2.8-3.9 0.5-7.6 0.2-12.5-1-3.9-0.9-8.8-2.8-11-4.2-2.2-1.4-5-3.7-6.3-5.2l-2.3-2.6c1.9 3.9 2.8 6.4 3.3 8 0.5 1.6 1.3 7.2 1.9 12.2 0.5 5.2 1.7 11 2.8 13 1 2.1 3.6 5.3 5.7 7.1 2.1 1.7 5.7 3.6 7.9 4 2.2 0.4 6.9 0.4 10.5 0 4.6-0.5 9-2 15-5 7.1-3.6 10.1-5.9 18-14.1 5.2-5.4 11.8-12.9 14.5-16.5 2.8-3.7 7-10.5 9.3-15.2 2.4-4.7 4.2-9.2 4-10-0.4-1.2-0.6-1.2-1.1 0.2z"></path><path class="a elQgRXKA_122" d="m204.6 291.3c-2.2 1.7-2.7 2.7-2.1 4.7 0.4 1.4 1.2 3.1 1.8 3.8 0.7 0.7 2.4 1.3 4 1.2 1.5 0 3.4-0.2 4.2-0.5 0.9-0.3 1.5-1.8 1.5-3.8 0-1.7-0.7-4.2-1.5-5.5-0.8-1.2-2.3-2.2-3.3-2.2-1.1 0-3.1 1-4.6 2.2z"></path><path class="a elQgRXKA_123" d="m576.5 288.5c-0.5 0.2-2.3 0.6-3.9 0.9-1.6 0.4-2.8 1.3-2.7 2.1 0 0.8 0.8 1.5 1.6 1.5 0.8 0 3.8-0.4 6.5-1 3.2-0.6 4.9-1.5 4.7-2.3-0.2-0.6-1.4-1.3-2.8-1.4-1.3-0.1-2.9 0-3.4 0.2z"></path><path class="a elQgRXKA_124" d="m228 289.3c0 0.6 0.3 2.7 0.7 4.5 0.5 1.8 1.5 3.5 2.3 3.8 0.8 0.2 2.6 0 4-0.5 2.3-0.8 2.6-0.5 4.2 3.3 0.9 2.2 2.6 7.5 3.7 11.6 1.1 4.1 2.6 12.7 3.2 19 0.6 6.3 1 17 0.8 23.7-0.4 11.2-0.2 12.3 1.3 12.3 1.4 0 2-1.1 2.4-4.8 0.4-2.6 0.4-10.6 0-17.7-0.4-7.1-1.4-16.6-2.2-21-0.8-4.4-2.4-11.1-3.5-15-1.1-3.9-2.7-9-3.7-11.3-1.3-3.4-2.1-4.3-3.5-3.8-1 0.4-1.9 0-2.2-0.9-0.3-0.8-0.3-2.2 0-3 0.4-1.2-0.4-1.5-3.5-1.5-2.5 0-4 0.5-4 1.2z"></path><path class="a elQgRXKA_125" d="m178.7 288.8c-0.9 0.2-1.9 1.3-2.3 2.5-0.3 1.2-0.3 3.2 0 4.4 0.3 1.3 1.5 2.7 2.6 3.3 1.5 0.7 2.7 0.6 4.5-0.5 1.5-0.9 2.5-2.4 2.5-3.8 0.1-1.2-0.7-2.9-1.7-3.8-1-0.9-2.3-1.8-2.9-2-0.6-0.3-1.9-0.3-2.7-0.1z"></path><path class="a elQgRXKA_126" d="m284.1 286.6c-1.4 0.9-2.3 2.4-2.3 3.7 0.1 1.2 0.9 3 1.9 3.9 1 1 2.2 1.8 2.8 1.8 0.5 0 1.8-0.7 2.8-1.7 1-1 1.6-2.9 1.5-4.2-0.2-1.3-1.2-3-2.4-3.7-1.7-1.2-2.4-1.1-4.3 0.2z"></path><path class="a elQgRXKA_127" d="m255 287c-1.4 1.4-1.8 2.8-1.4 4.8 0.3 1.5 1.6 3.5 2.8 4.5 1.1 1 2.9 1.8 3.9 1.7 0.9 0 2.4-1 3.2-2.3 0.8-1.2 1.5-3 1.5-4 0-0.9-1.1-2.8-2.5-4.2-1.4-1.4-3.2-2.5-4-2.5-0.8 0-2.4 0.9-3.5 2z"></path><path class="a elQgRXKA_128" d="m318.8 283.5c0.9 1.2 0.9 1.9-0.1 3.5-0.7 1.2-2.3 2-4 2-1.5 0-2.7 0.3-2.7 0.8-0.1 0.4 0.5 1.2 1.2 1.8 0.7 0.6 2.7 0.9 4.3 0.7 1.6-0.2 3.8-1.1 4.8-2 1-1 1.8-2.7 1.7-3.8 0-1.1-0.5-2.6-1.2-3.3-0.7-0.7-2.2-1.2-3.3-1.2-1.6 0-1.8 0.3-0.7 1.5z"></path><path class="a elQgRXKA_129" d="m476.7 283c-1.5 4.4-3 10.1-3.4 12.7-0.7 3.9-0.6 4.6 0.7 4.2 0.8-0.3 2.9-4.3 4.7-9 1.8-4.6 3.2-10.1 3.3-12.1q0-3.8-1.3-3.8c-0.8 0-2.5 3.3-4 8z"></path><path class="a elQgRXKA_130" d="m299.7 284.8c-0.3 5.9-0.4 16.1-0.1 22.7 0.3 6.6 0.7 34.7 0.7 62.5 0.2 44.2 0.4 50.5 1.7 50.5 1.3 0 1.6-4.3 2.2-29.5 0.4-17.4 0.3-32.5-0.2-36.8-0.6-3.9-1-16.7-1-28.2v-21c5.8 0.8 8.9 1.1 10.5 1.2 1.6 0 5.6-0.3 8.8-0.8l5.9-0.9c-0.3 79.8-0.3 104.9-0.3 107.2 0.1 2.4 0.4 4.3 0.9 4.3 0.4 0 1.1-2.8 1.6-6.2 0.5-3.5 1-33.1 1-65.8 0.1-32.7 0-60.7-0.1-62.3-0.2-1.6-0.9-2.7-1.8-2.7-0.9 0-1.6 1.2-1.9 3.2-0.2 1.8-0.2 6.8 0 11l0.4 7.8c-17.4-0.7-23-1-23.7-1.2-0.9-0.2-1-3.3-0.5-12.1 0.6-9.9 0.5-11.9-0.8-12.7-0.8-0.5-1.8-1-2.1-1-0.3 0-0.9 4.8-1.2 10.7z"></path><path class="a elQgRXKA_131" d="m569.2 275.2c0.4 1.3 0.8 2.6 0.8 3.1 0 0.4 1.5 1 3.2 1.3 1.8 0.4 5.3 1.7 7.8 2.9 3.1 1.5 5.1 3.4 6.5 6.1 1.2 2.6 1.9 5.8 1.8 9.4 0 3.5-1.1 8.2-3 13-1.6 4.1-4.7 10.2-7 13.5-2.2 3.3-7.9 10.3-12.6 15.5-4.8 5.2-9.9 10.6-11.4 12-1.5 1.5-8 7.4-14.3 13.2-6.3 5.9-14.7 13.3-18.5 16.5-3.9 3.2-12 10.1-18 15.3-6.1 5.2-11.9 10.4-13 11.6-1.1 1.1-5.2 4.8-9 8-3.9 3.2-10.6 9.1-15 13-4.4 3.9-11.4 9.6-15.5 12.7-4.1 3.1-11.3 8.6-16 12.3-4.7 3.6-10.8 8.3-13.5 10.5-2.8 2.1-8.4 6.4-12.6 9.6-4.1 3.2-10 7.7-13 10-3 2.3-9.2 6.3-13.9 8.8-4.7 2.5-13.7 6.9-20 9.7-6.3 2.8-15.6 6.1-20.5 7.3-5 1.3-13.1 2.8-18 3.5-7.1 1-11.8 1-22 0.1-7.7-0.7-17.7-2.5-24.5-4.3-6.3-1.6-16.5-4.8-22.5-7-6.1-2.2-13.3-5.2-16-6.6-2.8-1.3-10.2-5.5-16.5-9.3-6.3-3.7-13.4-8.7-15.7-11.1-2.3-2.4-6.7-8.8-9.8-14.3-3-5.5-6.9-13.5-8.7-17.8-3.1-7.3-3.5-7.8-5.8-7.1-2.1 0.5-2.4 0.4-1.8-1 0.5-0.9 0.8-1.8 0.8-2.1 0-0.3 0.7-0.5 1.5-0.5 0.8 0 1.5-0.4 1.5-1 0-0.5-0.6-1.3-1.3-1.6-0.6-0.3-2.2-0.1-3.5 0.5-1.2 0.6-2.5 2.1-2.8 3.4-0.3 1.2-0.1 3.2 0.5 4.5 0.6 1.2 2 2.3 3.2 2.5 1.5 0.1 3.5 3.1 7.7 11.2 3.2 6.1 7.6 13.7 9.8 17 2.3 3.3 6.7 8.3 10 11.2 3.2 2.9 8.1 6.5 10.9 7.9 2.7 1.5 5.2 3.1 5.5 3.5 0.3 0.4 5.4 3.2 11.5 6.3 6 3 15.3 7.1 20.5 9.1 5.2 1.9 15.6 4.9 23 6.4 7.4 1.6 17.1 3.2 21.5 3.6 4.4 0.3 14.2 0.1 21.7-0.4 12.5-1 15.3-1.6 29-6.2 8.4-2.8 17.5-6.3 20.3-7.7 2.7-1.4 9.7-5.4 15.5-9 5.8-3.5 13.4-8.5 17-11 3.6-2.5 10.4-7.7 15.1-11.6 4.8-3.9 14.8-11.8 22.4-17.6 7.6-5.8 19.5-15.5 26.4-21.5 6.9-6.1 16.6-14.4 21.6-18.5 4.9-4.1 12-10.2 15.6-13.5 3.6-3.3 10.8-9.7 16-14.2 5.2-4.5 11.6-9.9 14.3-12 2.7-2.1 8.6-7.2 13-11.3 4.4-4.1 11.9-11.8 16.6-17.2 4.7-5.3 10.1-11.6 12.1-14 2-2.3 4.9-6.8 6.4-9.8 1.5-3 3.8-8.2 5-11.5 1.2-3.3 2.5-8.2 2.9-11 0.5-3.4 0.2-6.4-0.8-9.5-0.9-2.7-3-5.9-5.3-7.9-2.1-1.9-4.7-4-5.8-4.7-1.1-0.7-4.3-2-7-2.9l-5-1.5z"></path><path class="a elQgRXKA_132" d="m174.7 270.4c-0.6 0.6-1 1.9-0.9 3.1 0.1 1.1 0.9 3 1.7 4.3 0.9 1.3 2.5 2.2 4 2.2 1.6 0 3.2-1 4.3-2.6 1.4-2.1 1.5-2.9 0.5-5-1-1.7-2.3-2.5-4.9-2.7-1.9-0.2-4 0.2-4.7 0.7z"></path><path class="a elQgRXKA_133" d="m284.5 268.8c-1 1-1.8 2.7-1.7 3.8 0.1 1 0.7 2.5 1.4 3.2 0.7 0.7 2.1 1.2 3 1.2 1 0 2.5-1 3.3-2.3 0.9-1.3 1.2-3 0.8-4.2-0.3-1.1-1.1-2.3-1.7-2.7-0.6-0.4-1.6-0.8-2.2-0.8-0.6 0-1.9 0.8-2.9 1.8z"></path><path class="a elQgRXKA_134" d="m354.3 267.2c-0.6 0.7-1.4 6.9-1.8 13.8-0.4 6.9-0.9 15.6-1.1 19.5-0.2 3.9-0.8 11.9-1.4 18-0.6 6.1-2 17.1-3.1 24.5-1.1 7.4-3.6 22.1-5.5 32.5-1.9 10.4-4 21.7-4.8 25-0.8 3.3-2.8 10.5-4.5 16-1.7 5.5-4.6 13.1-6.5 17-1.8 3.9-5.1 9.3-7.3 12-2.2 2.8-6.9 7.2-10.4 9.9-3.5 2.6-10 6.5-14.4 8.6-5.2 2.5-13.5 5.2-23.5 7.5-8.5 2.1-16.2 3.9-17 4.1-1.3 0.4-1.3 0.6 0 1.9 1.3 1.3 2.9 1.1 12.5-1 6.1-1.4 14.4-3.6 18.5-5 4.1-1.3 10.2-3.9 13.5-5.7 3.3-1.8 9-5.5 12.7-8.3 3.7-2.7 8.8-7.7 11.3-11 2.6-3.3 5.5-7.4 6.5-9 1-1.6 3.9-9.3 6.3-17 2.4-7.7 5.4-19.6 6.6-26.5 1.3-6.9 3.6-19.5 5.1-28 1.6-8.5 3.1-18.2 3.5-21.5 0.4-3.3 1.3-8.7 2.1-12 0.7-3.3 1.9-16.6 2.5-29.5 0.5-12.9 1.4-26.2 1.9-29.5 0.4-3.3 0.5-6.4 0.1-6.8-0.4-0.4-1.2-0.2-1.8 0.5z"></path><path class="a elQgRXKA_135" d="m231.4 266.8c-0.6 0.4-1.6 1.7-2.3 2.9-0.9 1.8-0.8 2.8 0.4 4.8 0.9 1.5 2.4 2.5 3.8 2.5 1.3 0 2.8-0.6 3.5-1.3 0.7-0.6 1.2-2.4 1.2-4 0-1.7-0.8-3.3-2.3-4.2-1.2-0.8-2.4-1.5-2.7-1.5-0.3 0-1 0.4-1.6 0.8z"></path><path class="a elQgRXKA_136" d="m255 267c-1.3 1.2-2.3 3-2.2 4 0.1 1.1 0.9 2.7 1.7 3.5 0.8 0.8 2.6 1.5 4 1.5 1.4 0 3.4-0.4 4.5-1q2-1 2-4 0-3-2.3-4.5c-1.2-0.8-2.9-1.5-3.8-1.5-0.8 0-2.6 0.9-3.9 2z"></path><path class="a elQgRXKA_137" d="m204 266.9c-0.6 1.1-1.1 2.9-1.1 4 0.1 1.2 1.4 3.5 3.1 5.1 1.7 1.7 3.8 2.9 4.8 2.7 0.9-0.1 2.3-1.6 3.1-3.2 1.2-2.7 1.2-3.4-0.5-6.5-1.5-2.7-2.6-3.6-5.1-3.8-2.3-0.2-3.4 0.2-4.3 1.7z"></path><path class="a elQgRXKA_138" d="m550 252.5c0 0.6 0.8 3.9 1.9 7.5 1.5 4.9 2.6 6.8 4.5 7.8 1.4 0.6 2.8 1.2 3.1 1.2 0.3 0 0.5-1.1 0.5-2.5 0-1.4-1.4-4.1-3.3-6.3-1.9-2-4.1-4.8-5-6.2-1-1.4-1.7-2.1-1.7-1.5z"></path><path class="a elQgRXKA_139" d="m270.9 252.8c0 0.4 0 12.3 0 26.4l0.1 25.8c-13.6 0-18.5 0.4-19.8 0.8-1.2 0.4-2.1 1.1-1.9 1.7 0.2 0.6 5 1.3 10.8 1.6 5.7 0.4 10.6 0.7 10.9 0.8 0.3 0 0.1 12.8-0.4 28.3-0.5 15.6-1 30.5-1 33.3-0.1 4.5 0.1 5 2.2 5.2 1.9 0.3 2.3-0.2 2.7-4.5 0.3-2.6 0.4-17.4 0.3-32.9-0.2-15.5 0.1-28.5 0.5-29 0.5-0.4 3.7-1 7.2-1.3 5.3-0.4 6.5-0.8 6.9-2.5 0.3-1.1 0.6-2.3 0.6-2.8 0-0.4-3.5-0.6-7.7-0.5l-7.8 0.3c0.6-17.1 1.2-23.1 1.7-24.5 0.6-1.6 0.5-5.9-0.3-12-0.6-5.2-1.8-10.7-2.5-12.3-0.8-1.5-1.6-2.7-1.9-2.7-0.3 0-0.5 0.3-0.6 0.7z"></path><path class="a elQgRXKA_140" d="m553 252c0 0.6 1.1 1.7 2.5 2.5 1.4 0.8 3.8 4.3 5.5 7.8 2.2 4.5 3 7.7 3 11.7 0 3-0.3 7.6-0.7 10.2-0.5 2.6-1 4.5-1.3 4.3-0.3-0.3-5.2 2.2-11 5.4-5.8 3.2-14.3 8.1-19 10.8-4.7 2.7-11.6 6.4-15.5 8.2-3.9 1.8-9.7 3.7-13 4.3-3.3 0.5-7.8 0.7-10 0.4-2.2-0.4-6.7-1.9-10-3.5-3.3-1.5-6.7-3.7-7.6-4.7-0.9-1-2.3-3.3-3-4.9-0.9-1.8-2.2-3-3.4-3-1.1 0-2.1 0.8-2.2 1.8-0.2 0.9 1.1 3.4 2.9 5.5 1.7 2 4.8 4.8 6.7 6.1 2 1.4 6.7 3.3 10.6 4.4 5.1 1.3 8.6 1.6 13 1.2 3.3-0.4 8.5-1.6 11.5-2.7 3-1.2 9.8-4.3 15-7.1 5.2-2.7 11.3-6.2 13.5-7.7 2.2-1.5 7.5-4.4 11.8-6.4 4.2-2 8.1-4.4 8.7-5.3 0.7-1.4 0.9-1.5 1-0.3 0 0.8-2 5.6-4.5 10.5-2.6 4.9-7 12.1-10 16-3 3.9-9.4 11.1-14.2 16-7.1 7.3-10.4 9.8-17.3 13.3-6 3-10.4 4.5-15 5-3.6 0.4-8.3 0.4-10.5 0-2.2-0.4-5.8-2.3-7.9-4-2.1-1.8-4.7-5-5.7-7-1.1-2.1-2.3-7.9-2.8-13-0.6-5.1-1.4-10.7-1.9-12.3-0.5-1.6-1.4-4-2-5.2-0.7-1.3-2.1-2.3-3.2-2.3-1.1 0-2.2 0.8-2.5 1.8-0.3 0.9 0.2 2.7 1 4 0.8 1.2 1.1 2.2 0.5 2.2-0.6 0-2.1 3.1-3.5 7-1.4 3.9-3.2 10.9-4 15.8-0.9 4.8-3.1 14.1-5 20.7-1.9 6.6-4.1 15.4-5 19.5-0.8 4.1-2.5 11.3-3.9 16-1.3 4.7-4.3 13-6.5 18.5-2.3 5.5-5.4 12-6.9 14.5-1.4 2.5-3.6 6.8-4.7 9.5-1.1 2.8-3.2 6.8-4.5 8.9-1.4 2.2-3.9 4.8-5.5 5.7-2.8 1.6-3.5 1.6-12-0.1-4.9-0.9-14.2-2.7-20.5-4-6.3-1.2-19.8-4-30-6.1-10.2-2.2-19.5-3.9-20.8-3.9-1.3 0-2.2 0.6-2.2 1.5 0 0.8 0.8 1.7 1.8 2 0.9 0.2 7.8 1.6 15.2 3.1 7.4 1.4 16.6 3 20.5 3.6 3.9 0.5 14.3 2.5 23.3 4.4 8.9 1.8 19 3.4 22.5 3.4 3.9 0.1 6.6-0.4 7.3-1.2 0.7-0.7 4.4-7.4 8.2-14.8 3.9-7.4 8.7-17.8 10.7-23 2-5.2 4.5-12.2 5.5-15.5 1.1-3.3 2.6-9.4 3.5-13.5 0.9-4.1 3.6-15.6 6-25.5 2.4-9.9 4.9-20.9 5.5-24.5 0.6-3.6 2-9.2 3.1-12.5 1.2-3.3 2.4-6.7 2.9-7.5 0.6-1 1 0.1 1.5 3.5 0.3 2.8 1.3 8.1 2.1 12 0.9 3.9 2.2 8.1 2.9 9.5 0.7 1.4 2.6 3.7 4.2 5.1 1.5 1.4 4.6 3.7 6.8 5 3.5 2.1 5.2 2.4 13.5 2.4 9.2 0 9.7-0.2 17.5-4.2 4.4-2.3 11-6.7 14.8-9.8 3.7-3 10.3-10.1 14.8-15.7 4.4-5.7 10.5-14.6 13.5-19.8 4-7 5.9-11.9 7.5-18.5 1.8-8 1.9-9.8 0.9-16-0.7-3.9-1.9-8.6-2.7-10.5-0.8-1.9-2.5-5-3.9-6.7-1.6-2.2-3.2-3.3-4.9-3.3-1.4 0-2.5 0.4-2.5 1z"></path><path class="a elQgRXKA_141" d="m229.6 247.6c-1.7 0.8-2.9 2.2-2.8 3.2 0.1 0.9 0.9 2.7 1.7 4 1.1 1.6 2.5 2.2 5 2.2 2.5 0 3.8-0.6 4.5-2 0.6-1.1 1-3 1-4.2 0-1.3-0.5-2.9-1.2-3.6-0.7-0.7-2.2-1.2-3.3-1.2-1.1 0.1-3.3 0.8-4.9 1.6z"></path><path class="a elQgRXKA_142" d="m205.7 247.3c-1.4 0.9-1.7 2.2-1.5 5.2 0.3 3.4 0.7 4 2.8 4.3 1.4 0.2 3.3-0.5 4.3-1.5 1-1 1.8-3 1.7-4.6 0-1.7-0.7-3.1-2-3.7-1.1-0.6-2.3-1-2.8-1-0.4 0-1.6 0.6-2.5 1.2z"></path><path class="a elQgRXKA_143" d="m255.4 247.3c-1 1.4-1.3 3.2-1 4.9 0.3 1.6 1.6 3.3 2.8 3.9 1.3 0.6 3.5 0.8 5 0.5 1.6-0.3 3-1.3 3.3-2.1 0.3-0.8 0.1-2.9-0.5-4.5-0.6-1.7-1.9-3.5-3-4-1.1-0.6-2.7-1-3.5-1-0.8 0-2.2 1-3.1 2.2z"></path><path class="a elQgRXKA_144" d="m177.5 246.2c-1 1.2-1.7 3.5-1.6 5 0.1 1.6 0.5 3.7 1.1 4.8 0.7 1.5 1.6 1.8 3.3 1.4 1.2-0.4 2.8-1.2 3.5-1.8 0.7-0.6 1.3-2.9 1.3-5.1-0.1-2.2-0.6-4.6-1.3-5.3-0.7-0.7-2.1-1.2-3-1.2-0.9 0-2.4 1-3.3 2.2z"></path><path class="a elQgRXKA_145" d="m541.8 247.8c-2.9 2.9-8.1 6.5-14 9.5-5.6 2.9-13.8 5.9-20.8 7.8-6.3 1.7-13.3 3.4-15.5 3.9-2.2 0.5-5.6 0.9-7.5 1-2.7 0-4.3-0.7-7-3.5-1.9-1.9-4.1-3.5-4.7-3.5-0.7 0-1.5 0.7-1.8 1.5-0.3 0.8 0.7 2.8 2.3 4.4 1.5 1.5 4.5 3.3 6.7 4 2.2 0.6 5.9 1.1 8.3 1.1 2.3 0 7.7-0.7 12-1.6 4.2-0.8 12.7-3.8 18.7-6.5 6.1-2.7 14.4-7 18.7-9.6 4.2-2.7 9-6 10.7-7.6 2.6-2.2 2.9-3 1.9-4.2-0.7-0.9-1.8-1.6-2.3-1.5-0.6 0-3.2 2.1-5.7 4.7z"></path><path class="a elQgRXKA_146" d="m285.4 243.5c-1 1.3-1.8 3.5-1.7 4.7 0.1 1.3 0.9 2.9 1.8 3.5 0.8 0.7 2.7 1.1 4.3 0.8 1.5-0.2 3.3-1.1 4-2 1-1.2 1-2.1 0-4.6-0.7-1.8-2.3-3.6-3.5-4-1.3-0.5-2.5-0.9-2.7-0.9-0.2 0-1.2 1.1-2.2 2.5z"></path><path class="a elQgRXKA_147" d="m313.1 242.6c-0.5 1.4-0.9 3.2-1 4-0.1 0.8 1 2.1 2.4 2.9 2.2 1.3 2.8 1.3 5 0 1.6-1 2.5-2.4 2.5-4 0-1.5-0.9-3.1-2.3-4-1.2-0.8-3-1.5-4-1.5-1 0-2.1 1.1-2.6 2.6z"></path><path class="a elQgRXKA_148" d="m254 227c-1.1 1.1-2 3.2-2 4.8-0.1 1.5 0.9 3.5 2.1 4.7 1.9 1.7 2.1 1.8 1.6 0.3-0.5-1.4-0.2-1.8 1.6-1.8 1.3 0 2.8-0.6 3.5-1.3 0.7-0.6 1.2-2.2 1.2-3.4 0-1.3-1-3-2.3-3.8-1.2-0.8-2.5-1.5-3-1.5-0.4 0-1.6 0.9-2.7 2z"></path><path class="a elQgRXKA_149" d="m231 226.2c-0.8 0.7-1.3 2.3-1.2 3.8 0 1.4 0.8 3.1 1.7 3.8 0.8 0.6 2.6 1 4 0.7 1.4-0.3 3.1-1.6 3.8-3 1-2.1 0.9-2.7-0.8-4.5-1.1-1.1-2.9-2.1-4.1-2-1.1 0-2.6 0.5-3.4 1.2z"></path><path class="a elQgRXKA_150" d="m205.9 224.1c-0.8 0.5-2.1 2.6-2.7 4.7-1 3.1-0.9 4 0.6 5.5 0.9 1 2.5 1.8 3.4 1.7 1 0 2.7-1.2 3.8-2.7 1.2-1.6 2.1-3.8 2-5 0-1.3-1-3-2.3-3.8-1.2-0.8-2.4-1.5-2.7-1.5-0.3 0-1.2 0.5-2.1 1.1z"></path><path class="a elQgRXKA_151" d="m177.1 225.1c-1.2 1.3-2.2 2.8-2.2 3.3 0.1 0.6 0.8 2.1 1.6 3.4 0.8 1.2 2.3 2.2 3.3 2.2 0.9 0 2.7-0.7 4-1.5 1.2-0.8 2.2-2.3 2.2-3.2 0-1-0.5-2.5-1.2-3.4-0.7-1-2.3-2-3.5-2.3-1.5-0.5-2.7 0-4.2 1.5z"></path><path class="a elQgRXKA_152" d="m313.8 220.7c-1 0.2-2 1.7-2.4 3.1-0.4 1.6-0.1 3.6 0.7 4.9 0.8 1.3 2.3 2.5 3.4 2.7 1.1 0.2 3.1 0.1 4.5-0.3 1.4-0.4 3.1-1.8 3.8-3.2 1.1-1.8 1.1-3.1 0.3-5.1-0.9-2.4-1.6-2.8-4.9-2.7-2 0.1-4.5 0.3-5.4 0.6z"></path><path class="a elQgRXKA_153" d="m287.5 221.2c-1.1 0.6-2.5 1.9-3.2 2.7-0.7 0.9-1.3 2.6-1.3 3.9 0 1.5 0.9 2.5 2.8 3.3 1.9 0.7 3.8 0.7 6.5 0 2.3-0.7 3.7-1.7 3.8-2.8 0.1-1 0-2.5-0.1-3.3-0.1-0.8-0.9-2.3-1.8-3.3-1-1-2.4-1.7-3.2-1.7-0.8 0-2.4 0.6-3.5 1.2z"></path><path class="a elQgRXKA_154" d="m239 195c0 2.5-0.4 5-0.8 5.6-0.4 0.6-1.9 1.4-3.5 1.7-1.5 0.4-2.7 1.4-2.7 2.2 0 0.8 0.7 1.7 1.5 2 0.8 0.3 3.8 0.5 6.5 0.5h5c-0.7 32.2-1.2 52.4-1.5 65.8-0.4 18.8-0.2 24.3 0.8 24.8 0.6 0.3 1.5 0.2 1.9-0.2 0.4-0.5 1-17.1 1.4-36.9 0.4-19.8 0.7-39.9 0.8-44.7 0.1-6.3 0.5-8.8 1.4-8.8 0.9 0 0.9-0.5 0.2-2-0.7-1.4-2-2-4.5-2-3.5 0-3.5-0.1-3.5-4.2 0-2.4-0.6-5.2-1.5-6.3-1.3-1.9-1.4-1.7-1.5 2.5z"></path><path class="a elQgRXKA_155" d="m253.5 180.3c-1 1.4-1.2 2.9-0.8 4.1 0.5 1 1.6 2.3 2.5 2.7 1.3 0.6 2.4 0.4 3.8-0.9 1.2-0.9 2.1-2.6 2-3.7 0-1.1-0.5-2.6-1.2-3.3-0.7-0.7-2.1-1.2-3-1.2-1 0-2.5 1-3.3 2.2z"></path><path class="a elQgRXKA_156" d="m193.4 179.8c-0.4 1.7-0.1 3.2 0.8 4.1 0.7 0.7 1.9 1 2.5 0.7 0.7-0.3 1.3-1.3 1.3-2.1 0-1.2 0.9-1.4 4.2-0.9 2.4 0.4 5.4 1.2 6.8 1.9 1.4 0.7 3.8 2.6 5.3 4.1 1.6 1.6 3.7 4.2 4.7 5.9 1.1 1.6 2.6 5.9 3.4 9.5 0.9 3.6 1.6 9 1.6 12 0 3-1.3 10.7-3 17-2 7.8-3 13.9-3 19 0 4.1 0.7 11.6 1.5 16.5 1 6.7 1.4 18.7 1.5 46.5 0 20.6-0.3 40.5-0.7 44.2-0.7 6.1-0.6 6.8 0.9 6.8 1.4 0 2-1.1 2.5-4.8 0.3-2.6 0.6-22.3 0.6-43.7 0-31.4-0.3-40.9-1.7-48.8-0.9-5.3-1.6-12.3-1.6-15.5 0-3.1 1.1-10.2 2.5-15.7 1.4-5.5 2.8-12.7 3.1-16 0.4-3.3 0.1-10.1-0.6-15-0.7-5.2-2.1-10.9-3.4-13.5-1.3-2.5-4.1-6.1-6.3-8-2.3-1.9-6.3-4.3-8.9-5.3-2.7-0.9-6.8-1.7-9.1-1.7-3.8 0-4.3 0.3-4.9 2.7z"></path><path class="a elQgRXKA_157" d="m380.7 181.8c0.3 3.7 0.8 7.1 1.2 7.6 0.3 0.4 1.1 0.6 1.6 0.3 0.6-0.4 0.7-2.6 0.3-5.9-0.5-2.9-1-6.1-1.3-7.1-0.3-0.9-0.9-1.7-1.4-1.7-0.5 0-0.6 3-0.4 6.7z"></path><path class="a elQgRXKA_158" d="m218.5 176.6c-0.9 0.8-1.6 2.4-1.6 3.5 0.1 1 0.5 1.9 1.1 1.9 0.6 0 1.7-1.3 2.5-3 0.8-1.7 1.1-3.2 0.6-3.5-0.5-0.3-1.7 0.2-2.6 1.1z"></path><path class="a elQgRXKA_159" d="m185.5 176.1c-1.5 1.7-2.7 3.5-2.6 4 0 0.5 0.5 1.8 1.1 2.9 0.6 1.2 2 2 3.5 2 1.4 0 2.5-0.2 2.5-0.5 0-0.3-0.5-1.5-1.1-2.7-0.8-1.7-0.8-2.6 0-3.3 0.6-0.6 1.2-1.8 1.2-2.7 0.1-0.9-0.4-1.9-0.9-2.2-0.6-0.4-2.2 0.8-3.7 2.5z"></path><path class="a elQgRXKA_160" d="m312.5 172.2c-1 1.2-1.7 3.3-1.6 4.5 0.1 1.3 0.8 3 1.6 3.8 0.8 0.8 2.5 1.5 3.8 1.5 1.2 0.1 2.9-0.7 3.9-1.7 0.9-1 1.7-2.7 1.9-3.8 0.2-1.1 0-3-0.4-4.2-0.6-1.8-1.4-2.3-4.2-2.3-2.4 0-3.9 0.7-5 2.2z"></path><path class="a elQgRXKA_161" d="m286.7 169.3c-0.8 0.7-1.8 2.7-2.1 4.4-0.5 2.8-0.1 3.9 2.8 7 3.3 3.8 3.4 3.8 6.5 2.3 1.8-0.8 3.5-2.4 3.8-3.5 0.4-1.1 0.6-2.9 0.4-4-0.1-1.1-0.8-2.5-1.4-3.2-0.7-0.7-2.8-1.9-4.9-2.7-2.8-1.2-3.9-1.3-5.1-0.3z"></path><path class="a elQgRXKA_162" d="m522 164.3c-1.9 1.3-3.8 3.1-4.3 4-0.4 0.9-0.2 2.6 0.3 3.7q1 2 0 3.5c-0.5 0.8-0.9 2.1-0.7 2.7 0.2 0.7-1.2 3.3-3 5.8-1.9 2.5-3.3 5.2-3.1 6 0.2 1 1.7 1.6 4.3 1.8 3 0.2 5.1-0.5 8.2-2.5 3.2-2.2 4.3-3.6 4.7-6.3 0.4-2.5-0.1-4.6-1.7-7.3l-2.2-3.9c3.9-3 6.2-3.9 7.8-3.8 2.2 0 2.8 0.5 3.2 3 0.3 1.6 1 2.8 1.5 2.5 0.5-0.3 1-1.6 1-3 0-1.4-1.1-3.9-2.5-5.5-2-2.4-3.3-3-6.2-3-2.3 0-5.2 0.9-7.3 2.3z"></path><path class="a elQgRXKA_163" d="m530.5 151.7c-1.1 0.3-3.9 1.9-6.2 3.7-2.4 1.7-4.2 3.2-4 3.4 0.1 0.1 2.2-0.7 4.7-1.8 2.5-1.1 6.5-1.9 9-1.9 3.8 0 5 0.5 7.8 3.4 2.6 2.9 3.2 4.3 3.2 8 0 2.5-0.7 6-1.7 7.8-0.9 1.7-3.6 6.1-6.1 9.7-2.4 3.6-6 8.2-8 10.4-2.1 2.1-5.5 4.7-7.7 5.7-2.5 1.2-6.3 1.9-10.3 1.9-5.3 0-6.6-0.4-8.7-2.5-1.4-1.4-2.8-2.3-3.3-2-0.4 0.2 0.1 1.6 1 3 1 1.4 2.9 3 4.3 3.5 1.4 0.6 4.5 1 7 1 2.5 0 7.3-0.9 10.8-2 4.2-1.4 7.1-3 9-5.2 1.6-1.8 3.7-5.1 4.9-7.3 1.1-2.2 4.1-6.2 6.7-8.8 4.3-4.5 4.6-5.2 5-11 0.3-4.8-0.1-7.3-1.8-10.9-1.6-3.8-3-5.2-6.4-6.8-2.3-1.1-4.9-1.9-5.7-1.9-0.8 0.1-2.4 0.4-3.5 0.6z"></path><path class="a elQgRXKA_164" d="m312.6 152.1c-1.2 0.6-1.9 1.9-1.8 3.4 0.1 1.4 0.6 3.4 1.2 4.5 0.6 1.3 2 2 3.7 2 1.6 0 3.3-0.4 3.9-0.8 0.6-0.4 1.6-1.7 2.3-2.9 0.9-2 0.7-2.7-1.4-4.8-1.4-1.4-3.3-2.5-4.3-2.5-0.9 0-2.6 0.5-3.6 1.1z"></path><path class="a elQgRXKA_165" d="m253.2 153c-0.7 1.1-1.2 3.1-1.2 4.5 0 1.4 0.9 3.4 2 4.5 1.1 1.1 3.1 2 4.5 2 1.5 0 2.9-0.8 3.5-2 0.6-1.1 1-3 1-4.3-0.1-1.2-1-3.2-2-4.5-1.1-1.2-3-2.2-4.3-2.2-1.3 0-2.8 0.9-3.5 2z"></path><path class="a elQgRXKA_166" d="m218 151.7c-1.9 1.2-2.4 2.3-2.3 4.7 0.2 2.2 1 3.5 2.8 4.4 1.4 0.6 3.1 1.2 3.8 1.2 0.6 0.1 2-0.7 2.9-1.7 1-1 1.8-2.8 1.8-4 0-1.3-0.9-3.2-2-4.3-1.1-1.1-2.6-2-3.3-1.9-0.6 0-2.3 0.7-3.7 1.6z"></path><path class="a elQgRXKA_167" d="m185.6 152.3c-1 1.5-1.2 3.3-0.7 5.7 0.4 2.4 1.3 3.6 2.6 3.8 1.1 0.2 3.2-0.8 4.8-2.2 1.5-1.4 2.7-3.3 2.7-4.1 0-0.8-0.9-2.4-2-3.5-1.1-1.1-2.9-2-4-2-1.1 0-2.6 1-3.4 2.2z"></path><path class="a elQgRXKA_168" d="m286.5 151.2c-1 1.2-1.7 2.8-1.6 3.5 0.1 0.7 0.8 2.7 1.6 4.3 1.1 2.2 2.1 2.9 3.8 2.8 2-0.3 2.2-0.8 1.9-4.8-0.2-2.5-0.8-5.3-1.3-6.2-0.5-1-1.3-1.8-1.9-1.8-0.5 0-1.6 1-2.5 2.2z"></path><path class="a elQgRXKA_169" d="m372.2 144.3c-0.7 1.7-1.2 4.3-1.2 5.7 0 1.4 0.7 3.2 1.6 4 1.3 1.3 1.3 1.8-0.2 4.5-1.7 2.9-1.7 3.2 0.7 7.5 1.3 2.4 3.2 4.6 4.2 4.7 1.6 0.3 1.5-0.1-0.4-4.5-1.2-2.6-1.8-5.6-1.5-6.7 0.5-1.8 1.2-1.9 5.8-1.6 3.9 0.4 5.1 0.2 4.6-0.7-0.5-0.7-2.5-1.5-4.5-1.8-2.1-0.3-4.8-1.2-6-2-2.1-1.3-2.2-2-1.8-6.9 0.4-3 0.4-5.5 0.2-5.5-0.2 0-0.9 1.5-1.5 3.2z"></path><path class="a elQgRXKA_170" d="m314.5 134.3c-1.1 0.6-2.3 1.6-2.7 2.2-0.4 0.5-0.8 1.8-0.8 2.7 0 1 1.6 3.4 3.5 5.3 1.9 1.9 3.8 3.5 4.3 3.5 0.4 0 1.7-1 2.9-2.2 1.4-1.5 2.3-3.6 2.3-5.8 0-2.1-0.6-4.2-1.7-5.2-1-1-2.7-1.7-3.8-1.7-1.1 0-2.9 0.5-4 1.2z"></path><path class="a elQgRXKA_171" d="m217.1 133.3c-0.5 1.2-0.5 3.1-0.1 4.2 0.4 1.1 1.9 2.4 3.3 3 1.8 0.7 3.3 0.6 5.1-0.3 1.8-0.8 2.6-2 2.6-3.7 0-1.5-0.9-3.1-2.2-4-1.3-0.8-3.5-1.5-5.1-1.5-1.9 0-3 0.7-3.6 2.2z"></path><path class="a elQgRXKA_172" d="m252.1 131.7c-0.6 2.1-1.1 4.9-1.1 6.3 0 1.4 0.4 3 0.8 3.7 0.4 0.6 1.8 1.4 3.2 1.8 1.9 0.6 2.9 0.2 4.3-1.6 0.9-1.3 1.8-3.6 1.8-5.1 0.1-1.9-0.7-3.3-2.7-4.8-1.6-1.2-2.8-2.5-2.6-2.8 0.2-0.4-0.3-0.8-1.1-1-1-0.2-1.9 1-2.6 3.5z"></path><path class="a elQgRXKA_173" d="m185.5 127.7c-1.5 0.3-1.9 1.2-1.7 3.1 0.1 1.5 0.9 3.7 1.7 4.9 0.8 1.3 2.5 2.3 3.8 2.3 1.2 0.1 3-0.7 3.9-1.7 1-1 1.8-2.5 1.8-3.3 0-0.8-0.5-2.2-1.2-3.1-0.7-0.9-2.4-1.9-3.8-2.1-1.4-0.3-3.4-0.3-4.5-0.1z"></path><path class="a elQgRXKA_174" d="m409.5 116.6c1.1 0.7 3.6 1.6 5.5 1.9 1.9 0.2 5.1 0.1 7-0.4 3.5-0.9 3.4-0.9-1.5-1-2.8-0.1-6.8-0.6-9-1.1-3.6-0.8-3.8-0.7-2 0.6z"></path><path class="a elQgRXKA_175" d="m264 116.4c-0.8 0.9-1.1 2-0.7 2.4 0.5 0.4 2.1 0.7 3.5 0.8 1.5 0 4.2 0.2 6 0.2 1.9 0.1 4.5 1.3 6.5 3 1.7 1.6 5.3 6.9 7.9 11.8 2.6 4.9 6.3 13.1 8.2 18.1 2 5.1 4.4 14 5.4 19.8q1.7 10.5 0.7 11.6c-0.6 0.5-1.1 5.8-1.2 11.7-0.1 5.9-0.3 11.4-0.4 12.2-0.1 0.8-0.1 13.5-0.1 28.2 0.2 22.8 0.4 26.9 1.7 27.5 0.8 0.5 1.8 0.6 2 0.3 0.3-0.3 0.5-5.8 0.5-12.3 0-7.5 0.4-11.5 1-11.2 0.6 0.3 0.9 5.7 0.8 14-0.2 8.2-0.7 13.5-1.3 13.5-0.6 0-3.3-1.1-6-2.4-2.8-1.3-6.1-3.4-7.5-4.7-1.4-1.3-3.9-4.2-5.5-6.4-1.7-2.1-5.6-9-8.8-15.2-3.1-6.3-5.3-11.5-4.7-11.8 0.6-0.3 1-0.1 1 0.5 0 0.6 0.3 1 0.8 1 0.4 0 0.8-5.1 0.8-11.2l0.2-11.3c11.8 0.4 16.1 0.1 17.2-0.5 1.1-0.6 1.8-1.4 1.5-2-0.3-0.6-2.9-1.3-5.7-1.7-2.9-0.3-7.2-0.6-9.5-0.5l-4.3 0.2c0.8-14.3 1.2-30.2 1.5-44.5 0.2-15.4 0.1-27.5-0.5-29.8-0.6-2-1.5-3.6-2.1-3.5-0.7 0.2-1.2 5.6-1.3 15.3-0.2 8.2-0.4 25.6-0.5 38.5l-0.1 23.5c-4.7 0.1-6.2 0.5-6.5 0.8-0.3 0.4-0.1 1.6 0.5 2.7 0.6 1.2 2 2 3.5 2h2.5c-0.7 13.6-1.1 17.6-1.2 17.7-0.2 0.1-2.8-4.6-5.8-10.4-3-5.8-8.2-14.2-11.6-18.7-3.3-4.5-7.8-9.6-10-11.4-2.1-1.8-6.6-4.6-9.9-6.3-3.3-1.6-6.6-2.7-7.2-2.4-0.7 0.3-1.2 1.5-1 2.7 0.2 1.9 0.8 2.3 3.8 2.3 2.6 0 4.6 0.9 7.5 3.4 2.1 1.8 6.8 6.4 10.4 10.1 3.6 3.6 8.7 10.4 11.4 15.1 2.8 4.6 6.4 11.6 8.1 15.4 1.6 3.8 5.9 12.4 9.4 19 4.6 8.5 8.1 13.6 12 17.5 4.3 4.2 7.2 6.1 12.4 8 6.7 2.5 6.8 2.6 8.8 8 1.1 3 2.7 6.6 3.6 8l1.7 2.5c1.2-5.1 0.9-7-0.2-9.2-0.9-1.8-1.5-3.5-1.2-3.8 0.3-0.3 3 0 6 0.6 3 0.6 8.6 0.9 12.5 0.7 5.2-0.4 8.8-1.4 14-3.8 4.5-2.2 9-5.4 12.5-8.9 5.2-5.3 5.8-6.4 9.8-18.6 2.4-7.2 7.2-19.5 10.7-27.5 3.5-8 9.2-21.9 12.8-31 3.5-9.1 6.9-18.1 7.5-20 0.6-1.9 2.2-4.3 3.6-5.3 1.8-1.1 3-3.3 3.7-6.5 0.6-2.6 0.8-5.7 0.5-7-0.4-1.3-1.3-2.1-2.3-2-1.2 0.2-3.1 4.5-6.9 15.3-2.8 8.2-8.3 22.9-12.2 32.5-3.9 9.6-8.8 21.6-11 26.5-2.2 4.9-6.1 15.3-8.7 23-4 12-5.3 14.6-8.8 18.3-2.4 2.5-7.6 6-12.2 8.3-7.5 3.7-8.5 4-16.8 3.9-4.8 0-8.9-0.4-9.2-1-0.3-0.6 0.2-1.2 1-1.5 0.9-0.3 1.8-2.3 2.1-4.8 0.5-3.4 0.3-4.4-1.2-5.5-1.1-0.7-2.6-1.2-3.4-1.2-0.8 0-2.3 0.5-3.4 1.2-1.4 1-1.9 2.5-1.8 5.8 0 3.6-0.1 4-0.8 2-0.4-1.4-0.8-9.7-0.9-18.5 0-8.8 0.2-21.7 0.7-28.7 0.7-12.4 0.8-12.7 3.1-13 1.3-0.2 2.9-1.1 3.5-2 0.6-0.9 0.9-2 0.6-2.3-0.3-0.3-2.1-0.9-4-1.3-3.5-0.8-3.5-0.9-4.2-7.2-0.4-3.6-1.5-10.6-2.3-15.5-0.9-4.9-3.6-15.8-6.1-24-2.5-8.3-5.8-17.7-7.4-21-1.5-3.3-4.8-8-7.1-10.5-2.4-2.5-6.2-5.4-8.4-6.4-2.2-1.1-5.8-2.1-8-2.4-2.9-0.3-4.5 0.1-5.5 1.2z"></path><path class="a elQgRXKA_176" d="m253.6 114.1c-0.5 1.3-0.5 3.4-0.2 4.7 0.3 1.2 1.6 2.6 2.9 3.1 1.2 0.5 2.5 0.7 3 0.5 0.4-0.2 0.7-1.4 0.7-2.6 0-1.3 0.5-2.9 1.2-3.5q1.3-1.3 0.3-2.3c-0.6-0.5-2.4-1.2-4.1-1.6-2.6-0.5-3.2-0.3-3.8 1.7z"></path><path class="a elQgRXKA_177" d="m312 111.7c-0.8 0.3-2.3 1.4-3.3 2.4-0.9 1.1-1.7 2.8-1.7 3.9 0 1.1 0.7 2.7 1.5 3.5 0.8 0.8 3.2 1.8 5.3 2.1 2.8 0.4 4.1 0.1 5.5-1.3 1-1 1.7-2.5 1.7-3.3 0-0.8-1.4-3-3-4.8-1.7-1.7-3.3-3.2-3.8-3.1-0.4 0-1.4 0.3-2.2 0.6z"></path><path class="a elQgRXKA_178" d="m286.6 112.1c-1.1 0.5-1.9 1.7-1.8 2.4 0.1 0.8 1.2 2.7 2.4 4.1 1.7 1.9 2.9 2.5 4.8 2.1 1.5-0.3 3.1-1.8 4.2-3.9 0.9-1.8 1.4-3.9 1.2-4.5-0.2-0.7-1.1-1.3-1.9-1.3-0.9 0-1.2 0.5-0.9 1.3 0.6 0.9 0.4 0.9-0.7-0.1-0.8-0.7-2.3-1.2-3.4-1.2-1.1 0-2.9 0.5-3.9 1.1z"></path><path class="a elQgRXKA_179" d="m219 110.3c-1.3 1.3-2.3 3.3-2.2 4.5 0.1 1.2 0.9 2.9 1.7 3.7 0.8 0.8 2.3 1.5 3.3 1.5 0.9 0.1 2.5-0.7 3.5-1.7 1.2-1.3 1.7-3 1.4-5.8-0.2-3.4-0.7-4-2.8-4.3-1.6-0.2-3.4 0.6-4.9 2.1z"></path><path class="a elQgRXKA_180" d="m421.4 107c-1 1.2-3.5 2.3-5.4 2.7-2.8 0.4-3.8 0.1-5.2-1.6-1-1.1-2-2.1-2.3-2.1-0.3 0-0.5 0.6-0.5 1.3 0 0.6 1 2.2 2.2 3.5 1.8 1.8 3 2.2 5.3 1.7 1.7-0.3 4.5-1.4 6.3-2.5 1.7-1.1 3.2-2.7 3.2-3.5 0-0.8-0.4-1.5-0.9-1.5-0.4 0-1.7 0.9-2.7 2z"></path><path class="a elQgRXKA_181" d="m188 104.8c-2.4 1.1-3.6 2.5-3.8 4.2-0.2 1.4-0.1 3.5 0.2 4.8 0.5 1.9 1.1 2.1 4.8 1.8 2.4-0.3 4.8-1.1 5.4-1.8 0.7-0.7 1.4-3 1.6-5 0.3-2.8 0-3.9-1.4-4.7-1-0.6-2.1-1.1-2.6-1.1-0.4 0-2.3 0.8-4.2 1.8z"></path><path class="a elQgRXKA_182" d="m330.5 99.3c-1.8 1.2-1.9 3.5-2.2 54.7-0.2 29.4-0.6 60.7-1 69.5-0.3 8.8-0.6 22.1-0.7 29.5-0.1 7.4 0.2 14.3 0.7 15.3q0.7 1.7 2.2 0.9c1.3-0.5 1.7-3.1 2-12.2 0.3-6.3 0.7-13.3 1-15.5 0.2-2.2 0.4-7.6 0.4-12 0-4.4-0.1-15.4-0.1-24.5 0-9.1 0.2-28.7 0.6-43.5 0.4-14.8 1.2-27.4 1.7-28 0.5-0.6 0.9-1.8 0.9-2.8 0-0.9-0.4-1.7-1-1.7-0.6 0-1-4.5-1.1-11.3 0-6.1 0-13.1 0-15.5 0.1-2.3-0.3-4.2-0.7-4.2-0.4 0-1.6 0.6-2.7 1.3z"></path><path class="a elQgRXKA_183" d="m288 98.2c-0.8 0.7-1.3 2-1.2 3 0.1 1 1.3 2.4 2.6 3 2.1 1.1 2.9 1 5-0.5 1.4-0.9 2.6-2.3 2.6-3 0-0.6-0.5-1.8-1.2-2.5-0.7-0.7-2.4-1.2-3.9-1.2-1.4 0-3.1 0.5-3.9 1.2z"></path><path class="a elQgRXKA_184" d="m410.5 95.9c1.1 0.5 2.9 1.3 4 1.7 1.7 0.6 1.5 0.8-1.2 1.3-1.8 0.3-4.3 1.4-5.5 2.4-1.4 1.2-1.9 2.2-1.3 2.7 0.6 0.4 3.3 1 6 1.4 3.5 0.4 5.8 0.2 7.8-0.9 2.4-1.4 3.1-1.3 6.6 0.2 2.7 1.2 3.7 2.2 3.3 3.1-0.4 0.8-2.9 2.5-5.7 3.8-3.5 1.7-4.3 2.4-2.7 2.4 1.2 0 3.7-0.6 5.5-1.3 1.7-0.8 4-2.6 5-4 0.9-1.5 1.5-3.2 1.2-3.7-0.3-0.6-4.2-2.8-8.7-5-4.6-2.2-10.1-4.2-12.3-4.5-2.9-0.4-3.5-0.3-2 0.4z"></path><path class="a elQgRXKA_185" d="m372.4 84.8c-0.3 0.9-1.4 3.7-2.5 6.2-1 2.5-2.3 6.5-2.9 9-0.5 2.5-1.6 10.6-2.4 18-0.8 7.4-2 19.1-2.6 26-0.6 6.9-1.8 19-2.6 27-0.8 8-1.4 21.8-1.4 30.8 0 8.9-0.4 19.5-0.9 23.5-0.5 3.9-1.5 11.5-2.1 16.7-0.6 5.2-1.3 11.4-1.5 13.8-0.4 3.3-0.2 4.2 1 4.2 1 0 1.7-1.3 2-3.7 0.3-2.1 0.9-7.6 1.4-12.3 0.6-4.7 1.5-12.8 2.1-18 0.6-5.2 1.3-18.5 1.5-29.5 0.3-11 0.7-22.5 1-25.5 0.3-3 1.2-12.7 2.1-21.5 0.9-8.8 2-16.9 2.5-18 0.5-1.3 0.8-1.4 0.8-0.5 0 0.8 1.4 3.3 3.1 5.5 1.7 2.2 3 3.3 3 2.5 0-0.8-0.7-2.2-1.4-3-0.8-0.8-1.7-3-2-4.7-0.4-2.1-0.1-3.7 0.7-4.3 0.6-0.6 3.7-2.6 6.7-4.5 3-2 6.7-5.4 8.3-7.8 1.5-2.3 2.7-4.9 2.8-5.7 0-0.8-1.5 0.7-3.3 3.4-2.5 3.8-5 5.9-10.3 8.8-3.9 2-7.3 4.5-7.7 5.5-0.5 1-0.5-1.6-0.2-5.7 0.3-4.1 1.7-13.1 3.1-20 1.4-6.9 2.9-13.3 3.4-14.2 0.5-1 0.9-2.3 0.9-2.8 0-0.5-0.5-1-1-1-0.6 0-1.3 0.8-1.6 1.8z"></path><path class="a elQgRXKA_186" d="m404.5 84.5c-2.7 3.3-2.8 3.8-1.5 5.1 1.2 1.2 5 1.6 17.6 1.7 15.7 0.2 16.1 0.3 20.2 3 2.3 1.5 4.6 2.7 5.2 2.7 0.6 0 1-0.3 1-0.7 0-0.5-1.4-2.7-3.2-5-1.8-2.4-5.5-5.4-8.3-6.8-4.2-2.2-6.9-2.7-16.5-3.2l-11.5-0.6z"></path><path class="a elQgRXKA_187" d="m377.1 83.7c-0.5 1.5-1 6.4-1.1 10.8-0.2 4.4 0.3 9 0.9 10.2 0.6 1.3 1.1 4.3 1.1 6.8 0 2.7 0.4 4.3 1 4 0.5-0.3 1-2.1 1-4 0-2.8 0.6-3.9 3-5.5 1.8-1.2 3-2.9 3-4.3 0-2-0.3-2.1-3.5-1.5-3.4 0.8-3.5 0.7-3.5-2.2 0-1.7 0.7-3.7 1.6-4.5 0.8-0.8 2.1-1.5 2.7-1.5 0.7-0.1 2 0.7 2.9 1.7 1 1 2.1 3.5 2.5 5.7 0.5 2.1 1.1 4 1.5 4.2 0.5 0.2 0.8-0.8 0.8-2.4 0-1.5-0.5-4.5-1.1-6.7-0.6-2.2-1.8-4.8-2.7-5.8-1-1-2.7-1.8-4-1.7-1.8 0-2.2-0.5-2-3 0.2-2.3-0.1-3-1.5-3-1 0-2.1 1.1-2.6 2.7z"></path><path class="a elQgRXKA_188" d="m503 79.1c-3 0.4-9.1 1.8-13.5 3-4.4 1.2-10.6 3.4-13.8 5-3.1 1.6-6.5 4.1-7.6 5.7-1 1.5-3.7 6.5-5.9 11.2-2.7 5.6-5 12.5-6.7 20.5-1.4 6.6-3.7 15.4-5 19.5-1.3 4.1-4.7 14.3-7.4 22.5-2.7 8.3-5.5 18-6 21.8-0.6 3.7-0.8 10-0.5 14 0.4 3.9 1.5 9.5 2.5 12.2 1 2.8 3.5 7 5.7 9.5 2.1 2.5 5.4 5.2 7.3 6.1 1.9 0.9 5.9 1.9 8.9 2.3 4.9 0.5 5.8 1 8.1 4.3 1.5 2.1 4.6 9.7 6.9 16.8 2.4 7.1 4.5 13.4 4.8 14 0.2 0.6 0.8 0.3 1.2-0.5 0.4-0.8-0.1-5.3-1.1-10-1.1-4.7-3.5-11.9-5.4-16-2.7-5.7-3.2-7.7-2.3-8.2 0.7-0.4 6.6-0.8 13.1-0.8h11.7c9.7-9.2 12.3-12.1 12-12.4-0.3-0.4-2.3 0.7-4.5 2.4-2.2 1.6-5.1 3.9-6.5 5.1-2.4 1.9-3.6 2-23 1.9-11.3-0.1-21.3-0.6-22.2-1.1-1-0.5-2.1-2.6-2.4-4.6-0.4-2.1-0.4-8.1-0.1-13.3 0.3-5.4 1.4-12.3 2.5-16 1.2-3.6 3.6-8.7 5.3-11.5 1.8-2.7 8.1-9.7 14-15.5 6.2-6.1 11.6-12.4 13-15 1.2-2.5 2.6-7.8 3-12 0.5-4.8 0.4-10.1-0.2-14.5-0.7-3.8-1.8-8.8-2.6-11-0.7-2.2-3.1-6.5-5.3-9.5-2.1-3-4.5-7.1-5.4-9l-1.5-3.5c9.6-4.2 16.7-6.1 21.9-7 5.2-0.9 13.1-1.8 17.5-2.1 4.4-0.4 12.7-0.2 18.5 0.4 8.1 0.8 12.5 1.8 19 4.5 4.7 1.9 10.7 4.5 13.4 5.8 2.9 1.4 7.2 4.9 10.4 8.4 3 3.3 6.5 7.7 7.8 9.8 1.3 2 3.7 7.2 5.2 11.5 1.6 4.2 3.4 10 4.1 12.7 1 4.1 1 6.5-0.4 13.5-0.8 4.7-2.8 11.2-4.4 14.5-1.5 3.3-5.5 9.6-8.8 14-3.3 4.4-10.4 12.7-15.7 18.5-5.7 6.2-11 13.2-13.1 17-1.8 3.6-4.1 9.2-4.9 12.5-0.9 3.3-1.6 7.9-1.6 10.3 0 2.3 0.5 4.4 1 4.7 0.5 0.3 1.2-0.5 1.4-1.7 0.2-1.3 1.1-5.7 2-9.8 0.9-4.1 3.3-10.9 5.4-15 2.5-5.2 6.1-10.1 11.7-16 4.4-4.7 11.4-12.1 15.4-16.5 4-4.4 8.5-10.2 9.9-13 1.4-2.7 2.9-6.3 3.4-8 0.5-1.6 1.5-6.4 2.3-10.5 0.7-4.1 1.2-9.5 0.9-12-0.2-2.5-1.5-8.3-2.9-13-1.4-4.7-4.5-11.8-6.8-15.9-2.5-4.4-6.4-9.3-9.7-12.3-3-2.7-9.1-6.7-13.5-9-4.4-2.3-10.5-5-13.5-6-3-1-8.4-2.5-12-3.4-4.2-1-10.5-1.4-18-1.3-6.3 0.2-14 0.6-17 1z"></path><path fill-rule="evenodd" class="a elQgRXKA_189" d="m446.9 201.5c0.9-0.1 1.8 0.1 1.9 0.2 0.1 0.2-1.1 1-2.8 1.8-1.6 0.8-2.8 1.7-2.5 2 0.3 0.3 1.5 0 2.8-0.6 1.9-0.9 1.8-0.7-0.5 1.5-1.6 1.4-3.4 2.6-4 2.6-0.9 0.1-0.9-0.4 0.2-1.6 1.4-1.6 1.3-1.7-0.5-1.1-1.6 0.6-1.5 0.3 0.5-1.3 1.4-1.1 2.8-2 3.3-2 0.4 0 0.5-0.3 0.3-0.8-0.2-0.4 0.4-0.7 1.3-0.7zm13.6-27.4c0.6 0 0.1 0.5-1 1.1-1.1 0.7-4.6 2.5-7.7 4-3.2 1.5-5.9 2.6-6 2.3-0.1-0.3 2.9-2 6.8-3.9 3.8-1.9 7.4-3.5 7.9-3.5zm21-20.1c0.5 0-0.8 1.7-3 3.8-2.6 2.6-7.8 5.5-15 8.7-6 2.6-13.4 6-16.2 7.6-2.9 1.6-5.3 2.6-5.3 2.2 0-0.5 3.7-3 8.2-5.8 4.6-2.7 13.3-7.5 19.3-10.7 6.1-3.2 11.4-5.8 12-5.8zm3.4-5.2c0.3 0.2-0.3 1-1.4 1.8-1.1 0.8-6.5 3.8-12 6.6-5.5 2.7-11.1 5.5-12.5 6-1.4 0.5-2.1 0.6-1.7 0.1 0.4-0.4 6.7-4 13.9-7.9 7.2-3.8 13.4-6.8 13.7-6.6zm1.4-12.7c0.4-0.1 0.7 1 0.7 2.4 0 1.9-1 3.1-4.2 4.9-2.4 1.3-9.9 5.4-16.8 9.1-6.9 3.6-14 7.6-15.9 8.8-3.3 2.1-3.4 2.1-3 0.3 0.2-1.1 5.1-5.2 11.5-9.5 6.2-4.2 14.7-9.5 19-11.8 4.4-2.3 8.2-4.2 8.7-4.2zm-19.4 7.9c0.2 0 0.2 0.2 0 0.4-0.2 0.3-4.2 3-8.9 6-4.7 3.1-8.6 5.5-8.7 5.3-0.2-0.1 3.7-2.8 8.5-6 4.8-3.1 8.9-5.7 9.1-5.7zm19.9-17.9c0.1-0.1 0.4 0.8 0.7 1.9 0.4 1.6-0.5 2.5-4.7 4.6-2.9 1.5-10 5.3-15.8 8.6-5.8 3.4-11.7 6.9-13.2 7.9-1.6 1.1-3 1.8-3.2 1.6-0.3-0.1-0.2-0.7 0.2-1.3 0.4-0.5 5.7-4.3 11.7-8.4 6.1-4 13.3-8.8 16-10.5 2.8-1.8 5.7-3.5 6.5-3.8 0.8-0.3 1.6-0.6 1.8-0.6zm0.2 6.9c0.2 0 0 0.4-0.5 0.8-0.6 0.5-5 3-10 5.6-4.9 2.7-8.5 4.3-8 3.8 0.6-0.6 4.8-3.1 9.5-5.6 4.7-2.5 8.7-4.6 9-4.6zm-9.3-7c0.2 0 0.3 0.2 0.3 0.5 0 0.3-1.7 1.5-3.7 2.8-2.1 1.3-5.6 3.4-7.8 4.7-2.2 1.3-3.5 1.8-3 1.3 0.6-0.6 3.9-2.9 7.4-5.2 3.6-2.3 6.6-4.1 6.8-4.1zm4.1-15.3c0.7 1 1.2 2 1.3 2.3 0 0.3-2.2 1.7-4.8 3.1-2.6 1.4-8.8 5.4-13.8 8.9-8.7 6.2-9 6.3-8.2 3.4 0.4-1.6 2-4 3.5-5.2 1.5-1.3 6.8-5.1 11.7-8.4 8.4-5.5 9.1-5.8 10.3-4.1zm-5-7.6c0.1-0.1 0.4 0.4 0.7 0.9 0.3 0.5-2.1 2.7-5.2 4.7-3.2 2-7.5 4.9-9.5 6.5-2.3 1.7-3.8 2.3-3.8 1.5 0.1-0.7 2.9-3.3 6.3-5.8 3.4-2.5 7.3-5.2 8.7-6.1 1.4-1 2.6-1.7 2.8-1.7zm-2-4.1c0.1 0 0.2 0.5 0.2 1 0 0.5-2.7 2.8-6 5-4.1 2.8-6 3.6-6.1 2.6-0.1-0.8 2.5-3.1 5.7-5 3.3-2 6-3.6 6.2-3.6z"></path><path class="a elQgRXKA_190" d="m149.5 77c-4.9 0.4-13.1 1-18 1.4-5 0.3-13 1.1-17.9 1.8-4.8 0.7-9 1.5-9.1 1.8-0.2 0.3-0.6 9.7-0.9 21-0.4 11.3-0.5 26.6-0.4 34 0.1 7.4 0.2 32.6 0.2 56 0 23.4-0.3 51.5-0.7 62.5-0.4 11-1.1 21.4-1.6 23-0.5 1.6-0.7 4.1-0.6 5.5 0.2 1.4 0.6 4.5 1 7 0.4 2.5 0.9 20.5 1.2 40 0.2 19.5 0.5 40.2 0.6 46 0 5.8-0.1 15-0.3 20.5-0.2 5.5-0.1 19.3 0.1 30.7l0.4 20.7c-11.6 0-17.5 0.3-20.5 0.7-3 0.3-6.2 1-7 1.4-0.8 0.4-3.8 1.1-6.5 1.5-2.8 0.4-6.8 1.4-9 2.2-2.2 0.8-4.5 1.6-5 1.7-0.5 0.2-2.8 0.8-5 1.4-2.2 0.6-5.1 2-6.5 3.1l-2.5 1.9c0 70.3-0.3 123.9-0.5 164.4-0.3 40.5-0.3 73.9 0 74.2 0.3 0.2 12.8 3.9 27.8 8 14.9 4.2 27.9 7.6 28.7 7.6 0.8 0 1.5-0.8 1.5-1.8 0-1.1-1.8-2.7-5.2-4.4-2.9-1.4-9.6-4.1-14.8-5.8-5.2-1.7-12.4-3.5-15.9-3.8-3.5-0.4-6.5-1-6.7-1.5-0.2-0.4-2.5-0.7-5.2-0.7-2.6 0-5.3-0.4-6-0.8-1.1-0.6-1.1-7.4-0.1-38.2 0.7-20.6 1.4-49.4 1.6-64 0.3-14.6 0.4-31.2 0.4-37 0-5.8-0.2-26.7-0.3-46.5-0.2-19.8 0-37.6 0.3-39.5 0.4-1.9 0.3-4.2-0.1-5-0.5-0.8-0.7-1.8-0.4-2.3 0.2-0.4 2.8-0.1 5.6 0.7 2.9 0.8 9.3 2 14.3 2.6 5 0.6 12.6 2 17 3.1 4.4 1 9.8 1.9 12 1.9 2.2 0 6.8 0.5 10.3 1l6.2 1c-0.6 91.8-1 119.9-1.3 121.5-0.3 1.6-0.8 4.8-1.2 7-0.4 2.2-0.8 7.4-0.9 11.5-0.1 7.3 0 7.5 2.4 7.8 1.4 0.2 3.1-0.2 3.7-1 1-1 1.4-18.3 1.8-74.3 0.3-40.1 0.6-73.1 0.7-73.1 0.2-0.1 4.6-0.9 9.8-1.8 5.2-0.9 18.7-3.2 30-5.1 11.3-1.9 22.9-4 25.7-4.5 4-0.8 5.3-1.4 5.3-2.8 0-1.5-0.6-1.6-4.7-1-2.7 0.4-7.5 1-10.8 1.4-6 0.6-6 0.6-6.7-2.2-0.4-1.6-0.6-34.6-0.5-73.4 0.2-38.8 0.6-70.9 0.9-71.5 0.3-0.6 5.3-1.3 10.9-1.7 6.8-0.5 10.7-1.2 11.1-2 0.4-0.7 0.6-1.7 0.4-2.3-0.2-0.6-4.7-0.9-11.4-0.8l-11.2 0.3c0.7-59.3 0.9-81.9 0.9-88.5v-12c14.4 1.2 19.9 1.5 21.6 1.5h3c-0.5 74.8-0.7 103-0.8 111-0.1 11.9 0.2 15.7 1.8 21.4 1.1 3.8 2.3 7 2.7 7.2 0.5 0.2 0.8-1.3 0.8-3.4 0.1-2 0.3-13.8 0.6-26.2 0.2-12.4 0.4-26.8 0.4-32 0-5.2-0.1-14.7-0.3-21-0.1-6.3-0.1-22 0.1-34.8l0.2-23.2c16.5 0 21.2-0.4 21.5-1 0.3-0.6 0.3-1.7 0-2.5-0.3-1-1.9-1.5-5-1.5h-4.5c0.4-10.2 0-13.3-0.8-14.3-1.1-1.5-1.4-1.3-3.2 2-1.1 2.1-1.9 5.1-1.8 6.8 0.1 1.6-0.1 3.6-0.5 4.2-0.5 1-5.2 1.3-18.2 1.3h-17.5v-123c5.8 0.8 10.4 1.2 14 1.4 3.6 0.3 10.9 0.8 16.2 1.3l9.8 0.8c-0.8 15.5-1.3 25.2-1.7 31.5-0.3 6.3-0.7 15.3-0.8 20-0.1 4.7-0.6 15-1 23l-0.7 14.5c4.4 1.2 5.9 1.3 6.2 0.9 0.3-0.3 0.8-20.4 1.2-44.7 0.4-24.3 0.9-44.3 1-44.5 0.2-0.1 6.1 0.3 13.2 1 7.1 0.7 13.4 1.7 14 2.3 0.8 0.7 0.9 8.4 0.4 25.5-0.4 13.5-0.9 26.7-1.3 29.5-0.3 2.7-0.8 9.1-1 14-0.3 4.9-0.1 11 0.5 13.5 0.5 2.5 1.7 5.2 2.5 6 0.9 0.8 1.7 1.3 2 1 0.2-0.3 0.5-7.5 0.6-16 0.1-8.5 0.6-21.8 1.1-29.5 0.5-7.7 1.1-15.1 1.3-16.5 0.2-1.4 0.4-8 0.4-14.8l0.1-12.2c5.8 0.7 11.2 1.2 15.7 1.5 4.6 0.3 9 0.8 10 1.2 1.4 0.7 1.5 2 1 10-0.6 7.7-0.4 9.5 0.8 10.3 0.8 0.5 1.7 0.7 1.9 0.2 0.2-0.4 0.7-2.5 1.1-4.7 0.4-2.2 0.7-6.7 0.6-10l-0.1-6c13.6 1.2 19.1 1.8 21 2 1.9 0.2 6.9 0.6 11 0.9 4.1 0.4 10 0.9 13 1.2 3 0.2 6.7 0 8.2-0.6 1.6-0.5 2.6-1.3 2.4-1.8-0.2-0.4-3.9-1.1-8.2-1.5-4.4-0.5-9.3-1-10.9-1.3-1.6-0.2-8.9-0.9-16-1.5-7.1-0.6-14.6-1.3-16.5-1.4-1.9-0.2-4.9-0.6-6.5-0.9-1.6-0.3-5.3-0.8-8-1.1-2.8-0.2-9.9-0.7-16-1-6.1-0.2-15.3-0.9-20.5-1.4-5.2-0.6-14.4-1.5-20.5-2.1-6.1-0.6-12.3-1.3-14-1.5-1.7-0.2-6.6-0.6-11-0.9-4.4-0.3-11.8-0.8-16.5-1-4.7-0.2-12.6-0.1-17.5 0.4z"></path><path class="a elQgRXKA_191" d="m90.5 456.5c-4.4 0.8-14.4 2.4-22.2 3.7-7.8 1.3-14.1 2.4-14 2.5 0.1 0.2 9.6 1.9 21.2 3.8 11.6 1.9 23 3.7 25.5 4 2.5 0.2 6.1 0.7 8 1 1.9 0.3 4.8 0.1 6.5-0.6 1.7-0.6 7-1.8 12-2.6 4.9-0.8 10.8-1.8 13-2.2 2.2-0.5 3.8-0.9 3.5-1-0.3-0.1-2.8-0.5-5.5-0.7-2.8-0.3-8.4-1.6-12.5-2.9-4.1-1.3-10.5-3.3-14.3-4.4-3.7-1.2-8.2-2.1-9.9-2-1.8 0.1-6.9 0.7-11.3 1.4zm56.5-375.5c-3.6 0.4-12.1 1.2-19 1.9-6.9 0.6-14.1 1.2-16.1 1.3l-3.6 0.3c-1 20.1-1.1 28.9-0.8 32.5 0.3 3.6 0.8 16.6 1.1 29 0.4 12.4 0.7 25.4 0.8 29 0.1 3.6-0.4 14.4-0.9 24-0.6 9.6-1 34.6-0.9 55.5 0.1 20.9 0.2 39.6 0.3 41.5 0 1.9-0.1 37-0.3 78-0.2 41-0.2 75.2 0.1 76 0.3 1.1 7.6 3.1 26.6 7.2 14.4 3.1 26.3 5.6 26.4 5.5 0.1-0.1 0.2-1.3 0.3-2.7 0-1.4-0.2-9.9-0.5-19-0.3-9.1-0.5-30.9-0.5-48.5 0-17.6 0.1-34 0.4-36.5 0.2-2.5 0.7-65.6 1.1-140.3l0.7-135.7c-6.7 0.2-11.6 0.6-15.2 1z"></path><path class="a elQgRXKA_192" d="m414.2 62.1c-0.5 1.6-6.2 4.1-24.7 11.3-13.2 5.1-32.5 12.3-43 16-10.4 3.7-20.6 7.4-22.5 8.3-2 0.8-4.6 1.3-6 0.9-1.8-0.4-3 0-4.2 1.4-1.4 1.5-1.6 2.5-0.8 4 0.6 1.1 1.9 2 3 2 1.1 0 2.8-1.1 3.8-2.4 0.9-1.3 3.5-3.1 5.7-4 2.2-1 9.6-3.8 16.5-6.3 6.9-2.4 22.6-8.2 35-12.8 12.4-4.6 25.2-9 28.5-9.9 3.3-0.9 6.6-1.6 7.3-1.6 0.6 0 1.4 1.1 1.7 2.5 0.3 1.4 0.9 2.5 1.5 2.5 0.6 0 1.2-0.7 1.5-1.5 0.3-0.8 0.5-3 0.5-4.8 0-1.7-0.2-4.2-0.4-5.5-0.1-1.2-0.8-2.2-1.5-2.2-0.6 0-1.5 0.9-1.9 2.1z"></path><path class="a elQgRXKA_193" d="m408.8 35.5c-2.7 1.4-6.7 4.4-9.1 6.8-2.3 2.3-6.7 7.3-9.8 11.2-3 3.9-7.3 9.7-9.5 13-2.3 3.3-4.4 6.8-4.7 7.8-0.5 1.3-0.2 1.7 1.5 1.7 1.7 0 3.3-1.7 6.3-6.3 2.2-3.4 4.7-7.3 5.5-8.7 0.8-1.4 2.9-4 4.5-5.9 1.7-1.9 6.1-6.4 9.8-10 3.8-3.6 8.3-7.2 10-7.9 3.1-1.3 3.3-1.3 6.6 2.5 1.9 2.1 6.3 6.9 9.9 10.8 3.7 4 8.5 10.8 11.2 16 2.7 5 5.6 12.2 6.5 16 1 4 1.5 9.3 1.3 12.5-0.3 3.9-1.6 7.6-4.3 12.5-2 3.8-6.3 10.5-9.4 14.7-3.1 4.2-7.4 10.5-9.6 14-2.2 3.4-4.8 8.7-5.8 11.8-1.1 3.6-1.7 8.6-1.7 14.5q0 9-1.7 14.4c-1.5 4.4-2.5 5.8-5.8 7.6-2.2 1.3-7.6 3-12 3.9-4.4 0.9-8.1 1.6-8.3 1.6-0.1 0-0.5 0.8-0.8 1.8-0.5 1.5 0 1.6 5.5 1 3.4-0.5 9.5-2.3 13.7-4 7.1-3.1 7.8-3.6 9.6-7.8 1.3-3.1 2.2-8.5 2.7-17 0.6-8.7 1.5-14.2 3-18 1.1-3 5.2-9.6 9.1-14.5 3.8-5 9.2-12.9 12-17.8 2.7-4.8 5.7-11.3 6.5-14.4 0.8-3.2 1.5-7.4 1.5-9.3 0-1.9-0.7-6.2-1.5-9.5-0.9-3.3-4-11-6.9-17-4.9-10-6.4-11.9-15.3-20.7-8-8-10.3-9.7-12.8-9.7-1.6 0-5.1 1.1-7.8 2.4z"></path><style data-made-with="vivus-instant">.elQgRXKA_0{stroke-dasharray:157 159;stroke-dashoffset:158;animation:elQgRXKA_draw 20000ms ease 0ms forwards;}.elQgRXKA_1{stroke-dasharray:35 37;stroke-dashoffset:36;animation:elQgRXKA_draw 20000ms ease 51ms forwards;}.elQgRXKA_2{stroke-dasharray:38 40;stroke-dashoffset:39;animation:elQgRXKA_draw 20000ms ease 103ms forwards;}.elQgRXKA_3{stroke-dasharray:35 37;stroke-dashoffset:36;animation:elQgRXKA_draw 20000ms ease 155ms forwards;}.elQgRXKA_4{stroke-dasharray:34 36;stroke-dashoffset:35;animation:elQgRXKA_draw 20000ms ease 207ms forwards;}.elQgRXKA_5{stroke-dasharray:409 411;stroke-dashoffset:410;animation:elQgRXKA_draw 20000ms ease 259ms forwards;}.elQgRXKA_6{stroke-dasharray:36 38;stroke-dashoffset:37;animation:elQgRXKA_draw 20000ms ease 310ms forwards;}.elQgRXKA_7{stroke-dasharray:39 41;stroke-dashoffset:40;animation:elQgRXKA_draw 20000ms ease 362ms forwards;}.elQgRXKA_8{stroke-dasharray:42 44;stroke-dashoffset:43;animation:elQgRXKA_draw 20000ms ease 414ms forwards;}.elQgRXKA_9{stroke-dasharray:37 39;stroke-dashoffset:38;animation:elQgRXKA_draw 20000ms ease 466ms forwards;}.elQgRXKA_10{stroke-dasharray:37 39;stroke-dashoffset:38;animation:elQgRXKA_draw 20000ms ease 518ms forwards;}.elQgRXKA_11{stroke-dasharray:38 40;stroke-dashoffset:39;animation:elQgRXKA_draw 20000ms ease 569ms forwards;}.elQgRXKA_12{stroke-dasharray:38 40;stroke-dashoffset:39;animation:elQgRXKA_draw 20000ms ease 621ms forwards;}.elQgRXKA_13{stroke-dasharray:43 45;stroke-dashoffset:44;animation:elQgRXKA_draw 20000ms ease 673ms forwards;}.elQgRXKA_14{stroke-dasharray:41 43;stroke-dashoffset:42;animation:elQgRXKA_draw 20000ms ease 725ms forwards;}.elQgRXKA_15{stroke-dasharray:45 47;stroke-dashoffset:46;animation:elQgRXKA_draw 20000ms ease 777ms forwards;}.elQgRXKA_16{stroke-dasharray:35 37;stroke-dashoffset:36;animation:elQgRXKA_draw 20000ms ease 829ms forwards;}.elQgRXKA_17{stroke-dasharray:39 41;stroke-dashoffset:40;animation:elQgRXKA_draw 20000ms ease 880ms forwards;}.elQgRXKA_18{stroke-dasharray:26 28;stroke-dashoffset:27;animation:elQgRXKA_draw 20000ms ease 932ms forwards;}.elQgRXKA_19{stroke-dasharray:35 37;stroke-dashoffset:36;animation:elQgRXKA_draw 20000ms ease 984ms forwards;}.elQgRXKA_20{stroke-dasharray:42 44;stroke-dashoffset:43;animation:elQgRXKA_draw 20000ms ease 1036ms forwards;}.elQgRXKA_21{stroke-dasharray:38 40;stroke-dashoffset:39;animation:elQgRXKA_draw 20000ms ease 1088ms forwards;}.elQgRXKA_22{stroke-dasharray:120 122;stroke-dashoffset:121;animation:elQgRXKA_draw 20000ms ease 1139ms forwards;}.elQgRXKA_23{stroke-dasharray:29 31;stroke-dashoffset:30;animation:elQgRXKA_draw 20000ms ease 1191ms forwards;}.elQgRXKA_24{stroke-dasharray:33 35;stroke-dashoffset:34;animation:elQgRXKA_draw 20000ms ease 1243ms forwards;}.elQgRXKA_25{stroke-dasharray:31 33;stroke-dashoffset:32;animation:elQgRXKA_draw 20000ms ease 1295ms forwards;}.elQgRXKA_26{stroke-dasharray:66 68;stroke-dashoffset:67;animation:elQgRXKA_draw 20000ms ease 1347ms forwards;}.elQgRXKA_27{stroke-dasharray:28 30;stroke-dashoffset:29;animation:elQgRXKA_draw 20000ms ease 1398ms forwards;}.elQgRXKA_28{stroke-dasharray:1425 1427;stroke-dashoffset:1426;animation:elQgRXKA_draw 20000ms ease 1450ms forwards;}.elQgRXKA_29{stroke-dasharray:724 726;stroke-dashoffset:725;animation:elQgRXKA_draw 20000ms ease 1502ms forwards;}.elQgRXKA_30{stroke-dasharray:180 182;stroke-dashoffset:181;animation:elQgRXKA_draw 20000ms ease 1554ms forwards;}.elQgRXKA_31{stroke-dasharray:473 475;stroke-dashoffset:474;animation:elQgRXKA_draw 20000ms ease 1606ms forwards;}.elQgRXKA_32{stroke-dasharray:15 17;stroke-dashoffset:16;animation:elQgRXKA_draw 20000ms ease 1658ms forwards;}.elQgRXKA_33{stroke-dasharray:35 37;stroke-dashoffset:36;animation:elQgRXKA_draw 20000ms ease 1709ms forwards;}.elQgRXKA_34{stroke-dasharray:35 37;stroke-dashoffset:36;animation:elQgRXKA_draw 20000ms ease 1761ms forwards;}.elQgRXKA_35{stroke-dasharray:44 46;stroke-dashoffset:45;animation:elQgRXKA_draw 20000ms ease 1813ms forwards;}.elQgRXKA_36{stroke-dasharray:35 37;stroke-dashoffset:36;animation:elQgRXKA_draw 20000ms ease 1865ms forwards;}.elQgRXKA_37{stroke-dasharray:35 37;stroke-dashoffset:36;animation:elQgRXKA_draw 20000ms ease 1917ms forwards;}.elQgRXKA_38{stroke-dasharray:37 39;stroke-dashoffset:38;animation:elQgRXKA_draw 20000ms ease 1968ms forwards;}.elQgRXKA_39{stroke-dasharray:40 42;stroke-dashoffset:41;animation:elQgRXKA_draw 20000ms ease 2020ms forwards;}.elQgRXKA_40{stroke-dasharray:106 108;stroke-dashoffset:107;animation:elQgRXKA_draw 20000ms ease 2072ms forwards;}.elQgRXKA_41{stroke-dasharray:37 39;stroke-dashoffset:38;animation:elQgRXKA_draw 20000ms ease 2124ms forwards;}.elQgRXKA_42{stroke-dasharray:26 28;stroke-dashoffset:27;animation:elQgRXKA_draw 20000ms ease 2176ms forwards;}.elQgRXKA_43{stroke-dasharray:31 33;stroke-dashoffset:32;animation:elQgRXKA_draw 20000ms ease 2227ms forwards;}.elQgRXKA_44{stroke-dasharray:22 24;stroke-dashoffset:23;animation:elQgRXKA_draw 20000ms ease 2279ms forwards;}.elQgRXKA_45{stroke-dasharray:158 160;stroke-dashoffset:159;animation:elQgRXKA_draw 20000ms ease 2331ms forwards;}.elQgRXKA_46{stroke-dasharray:23 25;stroke-dashoffset:24;animation:elQgRXKA_draw 20000ms ease 2383ms forwards;}.elQgRXKA_47{stroke-dasharray:29 31;stroke-dashoffset:30;animation:elQgRXKA_draw 20000ms ease 2435ms forwards;}.elQgRXKA_48{stroke-dasharray:56 58;stroke-dashoffset:57;animation:elQgRXKA_draw 20000ms ease 2487ms forwards;}.elQgRXKA_49{stroke-dasharray:37 39;stroke-dashoffset:38;animation:elQgRXKA_draw 20000ms ease 2538ms forwards;}.elQgRXKA_50{stroke-dasharray:44 46;stroke-dashoffset:45;animation:elQgRXKA_draw 20000ms ease 2590ms forwards;}.elQgRXKA_51{stroke-dasharray:37 39;stroke-dashoffset:38;animation:elQgRXKA_draw 20000ms ease 2642ms forwards;}.elQgRXKA_52{stroke-dasharray:56 58;stroke-dashoffset:57;animation:elQgRXKA_draw 20000ms ease 2694ms forwards;}.elQgRXKA_53{stroke-dasharray:38 40;stroke-dashoffset:39;animation:elQgRXKA_draw 20000ms ease 2746ms forwards;}.elQgRXKA_54{stroke-dasharray:156 158;stroke-dashoffset:157;animation:elQgRXKA_draw 20000ms ease 2797ms forwards;}.elQgRXKA_55{stroke-dasharray:85 87;stroke-dashoffset:86;animation:elQgRXKA_draw 20000ms ease 2849ms forwards;}.elQgRXKA_56{stroke-dasharray:15 17;stroke-dashoffset:16;animation:elQgRXKA_draw 20000ms ease 2901ms forwards;}.elQgRXKA_57{stroke-dasharray:36 38;stroke-dashoffset:37;animation:elQgRXKA_draw 20000ms ease 2953ms forwards;}.elQgRXKA_58{stroke-dasharray:36 38;stroke-dashoffset:37;animation:elQgRXKA_draw 20000ms ease 3005ms forwards;}.elQgRXKA_59{stroke-dasharray:22 24;stroke-dashoffset:23;animation:elQgRXKA_draw 20000ms ease 3056ms forwards;}.elQgRXKA_60{stroke-dasharray:67 69;stroke-dashoffset:68;animation:elQgRXKA_draw 20000ms ease 3108ms forwards;}.elQgRXKA_61{stroke-dasharray:39 41;stroke-dashoffset:40;animation:elQgRXKA_draw 20000ms ease 3160ms forwards;}.elQgRXKA_62{stroke-dasharray:17 19;stroke-dashoffset:18;animation:elQgRXKA_draw 20000ms ease 3212ms forwards;}.elQgRXKA_63{stroke-dasharray:34 36;stroke-dashoffset:35;animation:elQgRXKA_draw 20000ms ease 3264ms forwards;}.elQgRXKA_64{stroke-dasharray:36 38;stroke-dashoffset:37;animation:elQgRXKA_draw 20000ms ease 3316ms forwards;}.elQgRXKA_65{stroke-dasharray:20 22;stroke-dashoffset:21;animation:elQgRXKA_draw 20000ms ease 3367ms forwards;}.elQgRXKA_66{stroke-dasharray:32 34;stroke-dashoffset:33;animation:elQgRXKA_draw 20000ms ease 3419ms forwards;}.elQgRXKA_67{stroke-dasharray:38 40;stroke-dashoffset:39;animation:elQgRXKA_draw 20000ms ease 3471ms forwards;}.elQgRXKA_68{stroke-dasharray:64 66;stroke-dashoffset:65;animation:elQgRXKA_draw 20000ms ease 3523ms forwards;}.elQgRXKA_69{stroke-dasharray:30 32;stroke-dashoffset:31;animation:elQgRXKA_draw 20000ms ease 3575ms forwards;}.elQgRXKA_70{stroke-dasharray:60 62;stroke-dashoffset:61;animation:elQgRXKA_draw 20000ms ease 3626ms forwards;}.elQgRXKA_71{stroke-dasharray:22 24;stroke-dashoffset:23;animation:elQgRXKA_draw 20000ms ease 3678ms forwards;}.elQgRXKA_72{stroke-dasharray:274 276;stroke-dashoffset:275;animation:elQgRXKA_draw 20000ms ease 3730ms forwards;}.elQgRXKA_73{stroke-dasharray:84 86;stroke-dashoffset:85;animation:elQgRXKA_draw 20000ms ease 3782ms forwards;}.elQgRXKA_74{stroke-dasharray:25 27;stroke-dashoffset:26;animation:elQgRXKA_draw 20000ms ease 3834ms forwards;}.elQgRXKA_75{stroke-dasharray:97 99;stroke-dashoffset:98;animation:elQgRXKA_draw 20000ms ease 3886ms forwards;}.elQgRXKA_76{stroke-dasharray:153 155;stroke-dashoffset:154;animation:elQgRXKA_draw 20000ms ease 3937ms forwards;}.elQgRXKA_77{stroke-dasharray:24 26;stroke-dashoffset:25;animation:elQgRXKA_draw 20000ms ease 3989ms forwards;}.elQgRXKA_78{stroke-dasharray:30 32;stroke-dashoffset:31;animation:elQgRXKA_draw 20000ms ease 4041ms forwards;}.elQgRXKA_79{stroke-dasharray:21 23;stroke-dashoffset:22;animation:elQgRXKA_draw 20000ms ease 4093ms forwards;}.elQgRXKA_80{stroke-dasharray:255 257;stroke-dashoffset:256;animation:elQgRXKA_draw 20000ms ease 4145ms forwards;}.elQgRXKA_81{stroke-dasharray:53 55;stroke-dashoffset:54;animation:elQgRXKA_draw 20000ms ease 4196ms forwards;}.elQgRXKA_82{stroke-dasharray:37 39;stroke-dashoffset:38;animation:elQgRXKA_draw 20000ms ease 4248ms forwards;}.elQgRXKA_83{stroke-dasharray:36 38;stroke-dashoffset:37;animation:elQgRXKA_draw 20000ms ease 4300ms forwards;}.elQgRXKA_84{stroke-dasharray:183 185;stroke-dashoffset:184;animation:elQgRXKA_draw 20000ms ease 4352ms forwards;}.elQgRXKA_85{stroke-dasharray:149 151;stroke-dashoffset:150;animation:elQgRXKA_draw 20000ms ease 4404ms forwards;}.elQgRXKA_86{stroke-dasharray:35 37;stroke-dashoffset:36;animation:elQgRXKA_draw 20000ms ease 4455ms forwards;}.elQgRXKA_87{stroke-dasharray:35 37;stroke-dashoffset:36;animation:elQgRXKA_draw 20000ms ease 4507ms forwards;}.elQgRXKA_88{stroke-dasharray:35 37;stroke-dashoffset:36;animation:elQgRXKA_draw 20000ms ease 4559ms forwards;}.elQgRXKA_89{stroke-dasharray:96 98;stroke-dashoffset:97;animation:elQgRXKA_draw 20000ms ease 4611ms forwards;}.elQgRXKA_90{stroke-dasharray:38 40;stroke-dashoffset:39;animation:elQgRXKA_draw 20000ms ease 4663ms forwards;}.elQgRXKA_91{stroke-dasharray:41 43;stroke-dashoffset:42;animation:elQgRXKA_draw 20000ms ease 4715ms forwards;}.elQgRXKA_92{stroke-dasharray:18 20;stroke-dashoffset:19;animation:elQgRXKA_draw 20000ms ease 4766ms forwards;}.elQgRXKA_93{stroke-dasharray:33 35;stroke-dashoffset:34;animation:elQgRXKA_draw 20000ms ease 4818ms forwards;}.elQgRXKA_94{stroke-dasharray:13 15;stroke-dashoffset:14;animation:elQgRXKA_draw 20000ms ease 4870ms forwards;}.elQgRXKA_95{stroke-dasharray:2211 2213;stroke-dashoffset:2212;animation:elQgRXKA_draw 20000ms ease 4922ms forwards;}.elQgRXKA_96{stroke-dasharray:32 34;stroke-dashoffset:33;animation:elQgRXKA_draw 20000ms ease 4974ms forwards;}.elQgRXKA_97{stroke-dasharray:33 35;stroke-dashoffset:34;animation:elQgRXKA_draw 20000ms ease 5025ms forwards;}.elQgRXKA_98{stroke-dasharray:32 34;stroke-dashoffset:33;animation:elQgRXKA_draw 20000ms ease 5077ms forwards;}.elQgRXKA_99{stroke-dasharray:36 38;stroke-dashoffset:37;animation:elQgRXKA_draw 20000ms ease 5129ms forwards;}.elQgRXKA_100{stroke-dasharray:830 832;stroke-dashoffset:831;animation:elQgRXKA_draw 20000ms ease 5181ms forwards;}.elQgRXKA_101{stroke-dasharray:20 22;stroke-dashoffset:21;animation:elQgRXKA_draw 20000ms ease 5233ms forwards;}.elQgRXKA_102{stroke-dasharray:35 37;stroke-dashoffset:36;animation:elQgRXKA_draw 20000ms ease 5284ms forwards;}.elQgRXKA_103{stroke-dasharray:31 33;stroke-dashoffset:32;animation:elQgRXKA_draw 20000ms ease 5336ms forwards;}.elQgRXKA_104{stroke-dasharray:25 27;stroke-dashoffset:26;animation:elQgRXKA_draw 20000ms ease 5388ms forwards;}.elQgRXKA_105{stroke-dasharray:15 17;stroke-dashoffset:16;animation:elQgRXKA_draw 20000ms ease 5440ms forwards;}.elQgRXKA_106{stroke-dasharray:34 36;stroke-dashoffset:35;animation:elQgRXKA_draw 20000ms ease 5492ms forwards;}.elQgRXKA_107{stroke-dasharray:31 33;stroke-dashoffset:32;animation:elQgRXKA_draw 20000ms ease 5544ms forwards;}.elQgRXKA_108{stroke-dasharray:36 38;stroke-dashoffset:37;animation:elQgRXKA_draw 20000ms ease 5595ms forwards;}.elQgRXKA_109{stroke-dasharray:37 39;stroke-dashoffset:38;animation:elQgRXKA_draw 20000ms ease 5647ms forwards;}.elQgRXKA_110{stroke-dasharray:94 96;stroke-dashoffset:95;animation:elQgRXKA_draw 20000ms ease 5699ms forwards;}.elQgRXKA_111{stroke-dasharray:147 149;stroke-dashoffset:148;animation:elQgRXKA_draw 20000ms ease 5751ms forwards;}.elQgRXKA_112{stroke-dasharray:32 34;stroke-dashoffset:33;animation:elQgRXKA_draw 20000ms ease 5803ms forwards;}.elQgRXKA_113{stroke-dasharray:36 38;stroke-dashoffset:37;animation:elQgRXKA_draw 20000ms ease 5854ms forwards;}.elQgRXKA_114{stroke-dasharray:34 36;stroke-dashoffset:35;animation:elQgRXKA_draw 20000ms ease 5906ms forwards;}.elQgRXKA_115{stroke-dasharray:38 40;stroke-dashoffset:39;animation:elQgRXKA_draw 20000ms ease 5958ms forwards;}.elQgRXKA_116{stroke-dasharray:23 25;stroke-dashoffset:24;animation:elQgRXKA_draw 20000ms ease 6010ms forwards;}.elQgRXKA_117{stroke-dasharray:37 39;stroke-dashoffset:38;animation:elQgRXKA_draw 20000ms ease 6062ms forwards;}.elQgRXKA_118{stroke-dasharray:2317 2319;stroke-dashoffset:2318;animation:elQgRXKA_draw 20000ms ease 6113ms forwards;}.elQgRXKA_119{stroke-dasharray:633 635;stroke-dashoffset:634;animation:elQgRXKA_draw 20000ms ease 6165ms forwards;}.elQgRXKA_120{stroke-dasharray:386 388;stroke-dashoffset:387;animation:elQgRXKA_draw 20000ms ease 6217ms forwards;}.elQgRXKA_121{stroke-dasharray:258 260;stroke-dashoffset:259;animation:elQgRXKA_draw 20000ms ease 6269ms forwards;}.elQgRXKA_122{stroke-dasharray:38 40;stroke-dashoffset:39;animation:elQgRXKA_draw 20000ms ease 6321ms forwards;}.elQgRXKA_123{stroke-dasharray:29 31;stroke-dashoffset:30;animation:elQgRXKA_draw 20000ms ease 6373ms forwards;}.elQgRXKA_124{stroke-dasharray:181 183;stroke-dashoffset:182;animation:elQgRXKA_draw 20000ms ease 6424ms forwards;}.elQgRXKA_125{stroke-dasharray:33 35;stroke-dashoffset:34;animation:elQgRXKA_draw 20000ms ease 6476ms forwards;}.elQgRXKA_126{stroke-dasharray:30 32;stroke-dashoffset:31;animation:elQgRXKA_draw 20000ms ease 6528ms forwards;}.elQgRXKA_127{stroke-dasharray:38 40;stroke-dashoffset:39;animation:elQgRXKA_draw 20000ms ease 6580ms forwards;}.elQgRXKA_128{stroke-dasharray:38 40;stroke-dashoffset:39;animation:elQgRXKA_draw 20000ms ease 6632ms forwards;}.elQgRXKA_129{stroke-dasharray:55 57;stroke-dashoffset:56;animation:elQgRXKA_draw 20000ms ease 6683ms forwards;}.elQgRXKA_130{stroke-dasharray:613 615;stroke-dashoffset:614;animation:elQgRXKA_draw 20000ms ease 6735ms forwards;}.elQgRXKA_131{stroke-dasharray:1156 1158;stroke-dashoffset:1157;animation:elQgRXKA_draw 20000ms ease 6787ms forwards;}.elQgRXKA_132{stroke-dasharray:35 37;stroke-dashoffset:36;animation:elQgRXKA_draw 20000ms ease 6839ms forwards;}.elQgRXKA_133{stroke-dasharray:29 31;stroke-dashoffset:30;animation:elQgRXKA_draw 20000ms ease 6891ms forwards;}.elQgRXKA_134{stroke-dasharray:525 527;stroke-dashoffset:526;animation:elQgRXKA_draw 20000ms ease 6943ms forwards;}.elQgRXKA_135{stroke-dasharray:32 34;stroke-dashoffset:33;animation:elQgRXKA_draw 20000ms ease 6994ms forwards;}.elQgRXKA_136{stroke-dasharray:37 39;stroke-dashoffset:38;animation:elQgRXKA_draw 20000ms ease 7046ms forwards;}.elQgRXKA_137{stroke-dasharray:40 42;stroke-dashoffset:41;animation:elQgRXKA_draw 20000ms ease 7098ms forwards;}.elQgRXKA_138{stroke-dasharray:41 43;stroke-dashoffset:42;animation:elQgRXKA_draw 20000ms ease 7150ms forwards;}.elQgRXKA_139{stroke-dasharray:321 323;stroke-dashoffset:322;animation:elQgRXKA_draw 20000ms ease 7202ms forwards;}.elQgRXKA_140{stroke-dasharray:1097 1099;stroke-dashoffset:1098;animation:elQgRXKA_draw 20000ms ease 7253ms forwards;}.elQgRXKA_141{stroke-dasharray:37 39;stroke-dashoffset:38;animation:elQgRXKA_draw 20000ms ease 7305ms forwards;}.elQgRXKA_142{stroke-dasharray:32 34;stroke-dashoffset:33;animation:elQgRXKA_draw 20000ms ease 7357ms forwards;}.elQgRXKA_143{stroke-dasharray:37 39;stroke-dashoffset:38;animation:elQgRXKA_draw 20000ms ease 7409ms forwards;}.elQgRXKA_144{stroke-dasharray:37 39;stroke-dashoffset:38;animation:elQgRXKA_draw 20000ms ease 7461ms forwards;}.elQgRXKA_145{stroke-dasharray:183 185;stroke-dashoffset:184;animation:elQgRXKA_draw 20000ms ease 7512ms forwards;}.elQgRXKA_146{stroke-dasharray:35 37;stroke-dashoffset:36;animation:elQgRXKA_draw 20000ms ease 7564ms forwards;}.elQgRXKA_147{stroke-dasharray:32 34;stroke-dashoffset:33;animation:elQgRXKA_draw 20000ms ease 7616ms forwards;}.elQgRXKA_148{stroke-dasharray:37 39;stroke-dashoffset:38;animation:elQgRXKA_draw 20000ms ease 7668ms forwards;}.elQgRXKA_149{stroke-dasharray:31 33;stroke-dashoffset:32;animation:elQgRXKA_draw 20000ms ease 7720ms forwards;}.elQgRXKA_150{stroke-dasharray:36 38;stroke-dashoffset:37;animation:elQgRXKA_draw 20000ms ease 7772ms forwards;}.elQgRXKA_151{stroke-dasharray:33 35;stroke-dashoffset:34;animation:elQgRXKA_draw 20000ms ease 7823ms forwards;}.elQgRXKA_152{stroke-dasharray:41 43;stroke-dashoffset:42;animation:elQgRXKA_draw 20000ms ease 7875ms forwards;}.elQgRXKA_153{stroke-dasharray:40 42;stroke-dashoffset:41;animation:elQgRXKA_draw 20000ms ease 7927ms forwards;}.elQgRXKA_154{stroke-dasharray:238 240;stroke-dashoffset:239;animation:elQgRXKA_draw 20000ms ease 7979ms forwards;}.elQgRXKA_155{stroke-dasharray:28 30;stroke-dashoffset:29;animation:elQgRXKA_draw 20000ms ease 8031ms forwards;}.elQgRXKA_156{stroke-dasharray:422 424;stroke-dashoffset:423;animation:elQgRXKA_draw 20000ms ease 8082ms forwards;}.elQgRXKA_157{stroke-dasharray:32 34;stroke-dashoffset:33;animation:elQgRXKA_draw 20000ms ease 8134ms forwards;}.elQgRXKA_158{stroke-dasharray:17 19;stroke-dashoffset:18;animation:elQgRXKA_draw 20000ms ease 8186ms forwards;}.elQgRXKA_159{stroke-dasharray:32 34;stroke-dashoffset:33;animation:elQgRXKA_draw 20000ms ease 8238ms forwards;}.elQgRXKA_160{stroke-dasharray:38 40;stroke-dashoffset:39;animation:elQgRXKA_draw 20000ms ease 8290ms forwards;}.elQgRXKA_161{stroke-dasharray:45 47;stroke-dashoffset:46;animation:elQgRXKA_draw 20000ms ease 8341ms forwards;}.elQgRXKA_162{stroke-dasharray:106 108;stroke-dashoffset:107;animation:elQgRXKA_draw 20000ms ease 8393ms forwards;}.elQgRXKA_163{stroke-dasharray:212 214;stroke-dashoffset:213;animation:elQgRXKA_draw 20000ms ease 8445ms forwards;}.elQgRXKA_164{stroke-dasharray:36 38;stroke-dashoffset:37;animation:elQgRXKA_draw 20000ms ease 8497ms forwards;}.elQgRXKA_165{stroke-dasharray:38 40;stroke-dashoffset:39;animation:elQgRXKA_draw 20000ms ease 8549ms forwards;}.elQgRXKA_166{stroke-dasharray:36 38;stroke-dashoffset:37;animation:elQgRXKA_draw 20000ms ease 8601ms forwards;}.elQgRXKA_167{stroke-dasharray:35 37;stroke-dashoffset:36;animation:elQgRXKA_draw 20000ms ease 8652ms forwards;}.elQgRXKA_168{stroke-dasharray:33 35;stroke-dashoffset:34;animation:elQgRXKA_draw 20000ms ease 8704ms forwards;}.elQgRXKA_169{stroke-dasharray:83 85;stroke-dashoffset:84;animation:elQgRXKA_draw 20000ms ease 8756ms forwards;}.elQgRXKA_170{stroke-dasharray:43 45;stroke-dashoffset:44;animation:elQgRXKA_draw 20000ms ease 8808ms forwards;}.elQgRXKA_171{stroke-dasharray:34 36;stroke-dashoffset:35;animation:elQgRXKA_draw 20000ms ease 8860ms forwards;}.elQgRXKA_172{stroke-dasharray:41 43;stroke-dashoffset:42;animation:elQgRXKA_draw 20000ms ease 8911ms forwards;}.elQgRXKA_173{stroke-dasharray:35 37;stroke-dashoffset:36;animation:elQgRXKA_draw 20000ms ease 8963ms forwards;}.elQgRXKA_174{stroke-dasharray:34 36;stroke-dashoffset:35;animation:elQgRXKA_draw 20000ms ease 9015ms forwards;}.elQgRXKA_175{stroke-dasharray:1321 1323;stroke-dashoffset:1322;animation:elQgRXKA_draw 20000ms ease 9067ms forwards;}.elQgRXKA_176{stroke-dasharray:31 33;stroke-dashoffset:32;animation:elQgRXKA_draw 20000ms ease 9119ms forwards;}.elQgRXKA_177{stroke-dasharray:41 43;stroke-dashoffset:42;animation:elQgRXKA_draw 20000ms ease 9170ms forwards;}.elQgRXKA_178{stroke-dasharray:39 41;stroke-dashoffset:40;animation:elQgRXKA_draw 20000ms ease 9222ms forwards;}.elQgRXKA_179{stroke-dasharray:35 37;stroke-dashoffset:36;animation:elQgRXKA_draw 20000ms ease 9274ms forwards;}.elQgRXKA_180{stroke-dasharray:44 46;stroke-dashoffset:45;animation:elQgRXKA_draw 20000ms ease 9326ms forwards;}.elQgRXKA_181{stroke-dasharray:41 43;stroke-dashoffset:42;animation:elQgRXKA_draw 20000ms ease 9378ms forwards;}.elQgRXKA_182{stroke-dasharray:349 351;stroke-dashoffset:350;animation:elQgRXKA_draw 20000ms ease 9430ms forwards;}.elQgRXKA_183{stroke-dasharray:29 31;stroke-dashoffset:30;animation:elQgRXKA_draw 20000ms ease 9481ms forwards;}.elQgRXKA_184{stroke-dasharray:99 101;stroke-dashoffset:100;animation:elQgRXKA_draw 20000ms ease 9533ms forwards;}.elQgRXKA_185{stroke-dasharray:436 438;stroke-dashoffset:437;animation:elQgRXKA_draw 20000ms ease 9585ms forwards;}.elQgRXKA_186{stroke-dasharray:103 105;stroke-dashoffset:104;animation:elQgRXKA_draw 20000ms ease 9637ms forwards;}.elQgRXKA_187{stroke-dasharray:115 117;stroke-dashoffset:116;animation:elQgRXKA_draw 20000ms ease 9689ms forwards;}.elQgRXKA_188{stroke-dasharray:1038 1040;stroke-dashoffset:1039;animation:elQgRXKA_draw 20000ms ease 9740ms forwards;}.elQgRXKA_189{stroke-dasharray:683 685;stroke-dashoffset:684;animation:elQgRXKA_draw 20000ms ease 9792ms forwards;}.elQgRXKA_190{stroke-dasharray:3098 3100;stroke-dashoffset:3099;animation:elQgRXKA_draw 20000ms ease 9844ms forwards;}.elQgRXKA_191{stroke-dasharray:1040 1042;stroke-dashoffset:1041;animation:elQgRXKA_draw 20000ms ease 9896ms forwards;}.elQgRXKA_192{stroke-dasharray:246 248;stroke-dashoffset:247;animation:elQgRXKA_draw 20000ms ease 9948ms forwards;}.elQgRXKA_193{stroke-dasharray:516 518;stroke-dashoffset:517;animation:elQgRXKA_draw 20000ms ease 10000ms forwards;}@keyframes elQgRXKA_draw{100%{stroke-dashoffset:0;}}@keyframes elQgRXKA_fade{0%{stroke-opacity:1;}98.83040935672514%{stroke-opacity:1;}100%{stroke-opacity:0;}}</style></svg>